%TF.GenerationSoftware,KiCad,Pcbnew,9.0.2+dfsg-1*%
%TF.CreationDate,2026-08-25T23:50:23+02:00*%
%TF.ProjectId,abb-welcome-gateway-v3,6162622d-7765-46c6-936f-6d652d676174,rev?*%
%TF.SameCoordinates,Original*%
%TF.FileFunction,Copper,L1,Top*%
%TF.FilePolarity,Positive*%
%FSLAX46Y46*%
G04 Gerber Fmt 4.6, Leading zero omitted, Abs format (unit mm)*
G04 Created by KiCad (PCBNEW 9.0.2+dfsg-1) date 2026-08-25 23:50:23*
%MOMM*%
%LPD*%
G01*
G04 APERTURE LIST*
%TA.AperFunction,SMDPad,CuDef*%
%ADD10R,0.800000X0.950000*%
%TD*%
%TA.AperFunction,SMDPad,CuDef*%
%ADD11R,1.000000X0.650000*%
%TD*%
%TA.AperFunction,SMDPad,CuDef*%
%ADD12R,1.025000X1.400000*%
%TD*%
%TA.AperFunction,SMDPad,CuDef*%
%ADD13R,1.125000X1.750000*%
%TD*%
%TA.AperFunction,SMDPad,CuDef*%
%ADD14R,0.950000X0.800000*%
%TD*%
%TA.AperFunction,SMDPad,CuDef*%
%ADD15R,3.350000X1.225000*%
%TD*%
%TA.AperFunction,SMDPad,CuDef*%
%ADD16R,1.750000X1.125000*%
%TD*%
%TA.AperFunction,SMDPad,CuDef*%
%ADD17R,1.300000X0.600000*%
%TD*%
%TA.AperFunction,SMDPad,CuDef*%
%ADD18R,2.500000X3.500000*%
%TD*%
%TA.AperFunction,SMDPad,CuDef*%
%ADD19R,1.800000X2.500000*%
%TD*%
%TA.AperFunction,SMDPad,CuDef*%
%ADD20R,0.600000X0.450000*%
%TD*%
%TA.AperFunction,ComponentPad*%
%ADD21C,1.880000*%
%TD*%
%TA.AperFunction,SMDPad,CuDef*%
%ADD22R,2.500000X1.800000*%
%TD*%
%TA.AperFunction,SMDPad,CuDef*%
%ADD23R,2.500000X2.300000*%
%TD*%
%TA.AperFunction,SMDPad,CuDef*%
%ADD24R,1.400000X0.900000*%
%TD*%
%TA.AperFunction,SMDPad,CuDef*%
%ADD25R,3.320000X2.150000*%
%TD*%
%TA.AperFunction,SMDPad,CuDef*%
%ADD26R,0.532000X1.037500*%
%TD*%
%TA.AperFunction,SMDPad,CuDef*%
%ADD27R,0.750000X1.000000*%
%TD*%
%TA.AperFunction,SMDPad,CuDef*%
%ADD28R,2.650000X1.125000*%
%TD*%
%TA.AperFunction,SMDPad,CuDef*%
%ADD29R,1.037500X0.532000*%
%TD*%
%TA.AperFunction,SMDPad,CuDef*%
%ADD30R,1.260000X3.610000*%
%TD*%
%TA.AperFunction,SMDPad,CuDef*%
%ADD31R,1.325000X0.600000*%
%TD*%
%TA.AperFunction,SMDPad,CuDef*%
%ADD32R,0.450000X0.600000*%
%TD*%
%TA.AperFunction,SMDPad,CuDef*%
%ADD33R,1.500000X0.900000*%
%TD*%
%TA.AperFunction,SMDPad,CuDef*%
%ADD34R,0.900000X1.500000*%
%TD*%
%TA.AperFunction,HeatsinkPad*%
%ADD35C,0.600000*%
%TD*%
%TA.AperFunction,HeatsinkPad*%
%ADD36R,3.900000X3.900000*%
%TD*%
%TA.AperFunction,ViaPad*%
%ADD37C,0.600000*%
%TD*%
%TA.AperFunction,ViaPad*%
%ADD38C,0.500000*%
%TD*%
%TA.AperFunction,Conductor*%
%ADD39C,0.250000*%
%TD*%
%TA.AperFunction,Conductor*%
%ADD40C,0.400000*%
%TD*%
%TA.AperFunction,Conductor*%
%ADD41C,0.300000*%
%TD*%
%TA.AperFunction,Conductor*%
%ADD42C,0.800000*%
%TD*%
%TA.AperFunction,Conductor*%
%ADD43C,0.500000*%
%TD*%
%TA.AperFunction,Conductor*%
%ADD44C,0.450000*%
%TD*%
%TA.AperFunction,Conductor*%
%ADD45C,0.600000*%
%TD*%
G04 APERTURE END LIST*
D10*
%TO.P,R19,1*%
%TO.N,V3V3*%
X110475000Y-127400000D03*
%TO.P,R19,2*%
%TO.N,FB_TAP*%
X108825000Y-127400000D03*
%TD*%
D11*
%TO.P,Q5,1*%
%TO.N,TX_GATE*%
X92867000Y-111809000D03*
%TO.P,Q5,2*%
%TO.N,BUS_GND*%
X92867000Y-113709000D03*
%TO.P,Q5,3*%
%TO.N,TX_DRAIN_B*%
X94867000Y-112759000D03*
%TD*%
D12*
%TO.P,C_DCP1,1*%
%TO.N,V3V3_ESP*%
X87487500Y-88200000D03*
%TO.P,C_DCP1,2*%
%TO.N,DGND*%
X89312500Y-88200000D03*
%TD*%
D13*
%TO.P,C2,1*%
%TO.N,V3V3*%
X92137500Y-129199999D03*
%TO.P,C2,2*%
%TO.N,PGND*%
X95062500Y-129199999D03*
%TD*%
D14*
%TO.P,R7,1*%
%TO.N,BUS_TX_PIN*%
X97423000Y-111934000D03*
%TO.P,R7,2*%
%TO.N,TX_GATE*%
X97423000Y-113584000D03*
%TD*%
D13*
%TO.P,C4,1*%
%TO.N,V3V3*%
X90062500Y-129300000D03*
%TO.P,C4,2*%
%TO.N,PGND*%
X87137500Y-129300000D03*
%TD*%
D15*
%TO.P,R14,1*%
%TO.N,TX_DRAIN_B*%
X96210000Y-109242500D03*
%TO.P,R14,2*%
%TO.N,BUS_TX*%
X96210000Y-103317500D03*
%TD*%
D16*
%TO.P,F2,1*%
%TO.N,BUS_HOT*%
X120600000Y-109787500D03*
%TO.P,F2,2*%
%TO.N,BUS_FUSED*%
X120600000Y-112712500D03*
%TD*%
D10*
%TO.P,R20,1*%
%TO.N,TX_LED_A*%
X86565000Y-98535000D03*
%TO.P,R20,2*%
%TO.N,BUS_TX_PIN*%
X88215000Y-98535000D03*
%TD*%
D15*
%TO.P,R12,1*%
%TO.N,TX_DRAIN_A*%
X88250000Y-109242500D03*
%TO.P,R12,2*%
%TO.N,BUS_TX*%
X88250000Y-103317500D03*
%TD*%
D10*
%TO.P,LED2,1*%
%TO.N,TX_LED_A*%
X84913000Y-98535000D03*
%TO.P,LED2,2*%
%TO.N,DGND*%
X83263000Y-98535000D03*
%TD*%
%TO.P,C5,1*%
%TO.N,DGND*%
X84325000Y-82030000D03*
%TO.P,C5,2*%
%TO.N,EN*%
X85975000Y-82030000D03*
%TD*%
%TO.P,R3,1*%
%TO.N,BUS_GND*%
X83771000Y-107425000D03*
%TO.P,R3,2*%
%TO.N,BUS_RX_FILT*%
X85421000Y-107425000D03*
%TD*%
%TO.P,R18,1*%
%TO.N,PGND*%
X107225000Y-127400000D03*
%TO.P,R18,2*%
%TO.N,FB_TAP*%
X105575000Y-127400000D03*
%TD*%
D14*
%TO.P,R9,1*%
%TO.N,DTR*%
X115710000Y-85125000D03*
%TO.P,R9,2*%
%TO.N,D0_DRIVE*%
X115710000Y-86775000D03*
%TD*%
D10*
%TO.P,C3,1*%
%TO.N,BUS_RX_A*%
X85421000Y-103361000D03*
%TO.P,C3,2*%
%TO.N,BUS_RX_FILT*%
X83771000Y-103361000D03*
%TD*%
D17*
%TO.P,U1,1*%
%TO.N,BOOT_CAP*%
X103679900Y-127555000D03*
%TO.P,U1,2*%
%TO.N,BUS_PWR*%
X103679900Y-126285000D03*
%TO.P,U1,3*%
%TO.N,N/C*%
X103679900Y-125015000D03*
%TO.P,U1,4*%
%TO.N,PGND*%
X103679900Y-123745000D03*
%TO.P,U1,5*%
%TO.N,FB_TAP*%
X98280100Y-123745000D03*
%TO.P,U1,6*%
%TO.N,N/C*%
X98280100Y-125015000D03*
%TO.P,U1,7*%
%TO.N,SW_NODE*%
X98280100Y-126285000D03*
%TO.P,U1,8*%
%TO.N,N/C*%
X98280100Y-127555000D03*
D18*
%TO.P,U1,9*%
%TO.N,PGND*%
X100979900Y-125650000D03*
%TD*%
D19*
%TO.P,D1,1*%
%TO.N,PGND*%
X99000000Y-116400000D03*
%TO.P,D1,2*%
%TO.N,SW_NODE*%
X99000000Y-120400000D03*
%TD*%
D16*
%TO.P,C7,1*%
%TO.N,PGND*%
X110430000Y-125212500D03*
%TO.P,C7,2*%
%TO.N,BUS_PWR*%
X110430000Y-122287500D03*
%TD*%
D20*
%TO.P,D6,1*%
%TO.N,BUS_RTN*%
X117900000Y-92950000D03*
%TO.P,D6,2*%
%TO.N,BUS_FUSED*%
X115800000Y-92950000D03*
%TD*%
D10*
%TO.P,LED3,1*%
%TO.N,RX_LED_A*%
X84913000Y-96757000D03*
%TO.P,LED3,2*%
%TO.N,RX_LED_K*%
X83263000Y-96757000D03*
%TD*%
%TO.P,R5,1*%
%TO.N,DGND*%
X90275000Y-101450000D03*
%TO.P,R5,2*%
%TO.N,BUS_TX_PIN*%
X91925000Y-101450000D03*
%TD*%
D14*
%TO.P,R8,1*%
%TO.N,RTS*%
X119350000Y-90425000D03*
%TO.P,R8,2*%
%TO.N,EN_DRIVE*%
X119350000Y-88775000D03*
%TD*%
D10*
%TO.P,R11,1*%
%TO.N,RST_BTN*%
X81125000Y-82030000D03*
%TO.P,R11,2*%
%TO.N,EN*%
X82775000Y-82030000D03*
%TD*%
%TO.P,R17,1*%
%TO.N,PWR_LED_A*%
X86565000Y-94979000D03*
%TO.P,R17,2*%
%TO.N,V3V3_ESP*%
X88215000Y-94979000D03*
%TD*%
D21*
%TO.P,P2,1*%
%TO.N,DGND*%
X112282000Y-94979000D03*
%TO.P,P2,2*%
%TO.N,RTS*%
X112282000Y-92439000D03*
%TO.P,P2,3*%
%TO.N,V3V3_ESP*%
X112282000Y-89899000D03*
%TO.P,P2,4*%
%TO.N,RX*%
X112282000Y-87359000D03*
%TO.P,P2,5*%
%TO.N,TX*%
X112282000Y-84819000D03*
%TO.P,P2,6*%
%TO.N,DTR*%
X112282000Y-82279000D03*
%TD*%
D22*
%TO.P,D2,1*%
%TO.N,BUS_HOT_F*%
X108200000Y-109650000D03*
%TO.P,D2,2*%
%TO.N,BUS_DC_RAW*%
X104200000Y-109650000D03*
%TD*%
D11*
%TO.P,Q6,1*%
%TO.N,BUS_RX_PIN*%
X81786000Y-104311000D03*
%TO.P,Q6,2*%
%TO.N,BUS_GND*%
X81786000Y-102411000D03*
%TO.P,Q6,3*%
%TO.N,RX_LED_K*%
X79786000Y-103361000D03*
%TD*%
D21*
%TO.P,P1,1*%
%TO.N,BUS_RTN*%
X117000000Y-100960000D03*
%TO.P,P1,2*%
%TO.N,BUS_HOT*%
X117000000Y-106040000D03*
%TD*%
D10*
%TO.P,R10,1*%
%TO.N,EN*%
X87425000Y-81900000D03*
%TO.P,R10,2*%
%TO.N,V3V3_ESP*%
X89075000Y-81900000D03*
%TD*%
D23*
%TO.P,TVS1,1*%
%TO.N,BUS_GND*%
X112450000Y-111150000D03*
%TO.P,TVS1,2*%
%TO.N,BUS_PWR*%
X116750000Y-111150000D03*
%TD*%
D24*
%TO.P,L1,1*%
%TO.N,BUS_FUSED*%
X119270000Y-97200000D03*
%TO.P,L1,2*%
%TO.N,BUS_RTN*%
X119270000Y-94700000D03*
%TO.P,L1,3*%
%TO.N,BUS_GND*%
X114710000Y-94700000D03*
%TO.P,L1,4*%
%TO.N,BUS_HOT_F*%
X114710000Y-97200000D03*
%TD*%
D22*
%TO.P,D3,1*%
%TO.N,BUS_GND*%
X84400000Y-112800000D03*
%TO.P,D3,2*%
%TO.N,BUS_RX_BIAS*%
X80400000Y-112800000D03*
%TD*%
D25*
%TO.P,L2,1*%
%TO.N,SW_NODE*%
X93290000Y-125513000D03*
%TO.P,L2,2*%
%TO.N,V3V3*%
X93290000Y-119687000D03*
%TD*%
D26*
%TO.P,Q3,1*%
%TO.N,D0_DRIVE*%
X117680000Y-88448700D03*
%TO.P,Q3,2*%
%TO.N,DGND*%
X115780000Y-88448700D03*
%TO.P,Q3,3*%
%TO.N,BOOT_STRAP*%
X116730000Y-90651300D03*
%TD*%
D14*
%TO.P,R_BGND,1*%
%TO.N,BUS_GND*%
X114900000Y-128475000D03*
%TO.P,R_BGND,2*%
%TO.N,GND*%
X114900000Y-130125000D03*
%TD*%
D15*
%TO.P,R15,1*%
%TO.N,TX_DRAIN_B*%
X100190000Y-109242500D03*
%TO.P,R15,2*%
%TO.N,BUS_TX*%
X100190000Y-103317500D03*
%TD*%
D10*
%TO.P,C_DCP3,1*%
%TO.N,V3V3_ESP*%
X87725000Y-83550000D03*
%TO.P,C_DCP3,2*%
%TO.N,DGND*%
X89375000Y-83550000D03*
%TD*%
%TO.P,R4,1*%
%TO.N,BUS_RX_FILT*%
X85421000Y-109457000D03*
%TO.P,R4,2*%
%TO.N,BUS_RX_BIAS*%
X83771000Y-109457000D03*
%TD*%
%TO.P,R6,1*%
%TO.N,STAT_LED_A*%
X86565000Y-100313000D03*
%TO.P,R6,2*%
%TO.N,LED_PIN*%
X88215000Y-100313000D03*
%TD*%
%TO.P,R1,1*%
%TO.N,BUS_RX_A*%
X85421000Y-105266000D03*
%TO.P,R1,2*%
%TO.N,BUS_RX_FILT*%
X83771000Y-105266000D03*
%TD*%
D22*
%TO.P,D4,1*%
%TO.N,BUS_HOT_F*%
X108200000Y-106050000D03*
%TO.P,D4,2*%
%TO.N,BUS_RX_A*%
X104200000Y-106050000D03*
%TD*%
D10*
%TO.P,R16,1*%
%TO.N,RX_LED_A*%
X86565000Y-96757000D03*
%TO.P,R16,2*%
%TO.N,V3V3_ESP*%
X88215000Y-96757000D03*
%TD*%
D27*
%TO.P,SW1,1*%
%TO.N,RST_BTN*%
X80206000Y-90867000D03*
%TO.P,SW1,2*%
X80206000Y-84867000D03*
%TO.P,SW1,3*%
%TO.N,DGND*%
X83906000Y-90867000D03*
%TO.P,SW1,4*%
X83906000Y-84867000D03*
%TD*%
D28*
%TO.P,C6,1*%
%TO.N,V3V3*%
X79150000Y-122937500D03*
%TO.P,C6,2*%
%TO.N,PGND*%
X79150000Y-125862500D03*
%TD*%
D15*
%TO.P,R13,1*%
%TO.N,TX_DRAIN_A*%
X92230000Y-109242500D03*
%TO.P,R13,2*%
%TO.N,BUS_TX*%
X92230000Y-103317500D03*
%TD*%
D10*
%TO.P,R2,1*%
%TO.N,BUS_RX_DET*%
X81611000Y-106282000D03*
%TO.P,R2,2*%
%TO.N,V3V3_ESP*%
X79961000Y-106282000D03*
%TD*%
D22*
%TO.P,D5,1*%
%TO.N,BUS_HOT_F*%
X108200000Y-102450000D03*
%TO.P,D5,2*%
%TO.N,BUS_TX*%
X104200000Y-102450000D03*
%TD*%
D29*
%TO.P,Q1,1*%
%TO.N,BUS_RX_BIAS*%
X81887300Y-110153000D03*
%TO.P,Q1,2*%
%TO.N,BUS_GND*%
X81887300Y-108253000D03*
%TO.P,Q1,3*%
%TO.N,BUS_RX_DET*%
X79684700Y-109203000D03*
%TD*%
D14*
%TO.P,R_PGND,1*%
%TO.N,PGND*%
X112900000Y-128475000D03*
%TO.P,R_PGND,2*%
%TO.N,GND*%
X112900000Y-130125000D03*
%TD*%
D16*
%TO.P,C8,1*%
%TO.N,PGND*%
X107640000Y-125212500D03*
%TO.P,C8,2*%
%TO.N,BUS_PWR*%
X107640000Y-122287500D03*
%TD*%
D30*
%TO.P,C19,1*%
%TO.N,V3V3*%
X85310000Y-119305000D03*
%TO.P,C19,2*%
%TO.N,PGND*%
X85310000Y-125895000D03*
%TD*%
D12*
%TO.P,FB1,1*%
%TO.N,V3V3*%
X83587500Y-116000000D03*
%TO.P,FB1,2*%
%TO.N,V3V3_ESP*%
X85412500Y-116000000D03*
%TD*%
D10*
%TO.P,C_U3,1*%
%TO.N,V3V3_ESP*%
X85025000Y-92600000D03*
%TO.P,C_U3,2*%
%TO.N,DGND*%
X83375000Y-92600000D03*
%TD*%
D31*
%TO.P,U3,1*%
%TO.N,BUS_RX_DET*%
X89137500Y-92850000D03*
%TO.P,U3,2*%
%TO.N,DGND*%
X89137500Y-91900000D03*
%TO.P,U3,3*%
%TO.N,BUS_RX_PIN*%
X89137500Y-90950000D03*
%TO.P,U3,4*%
%TO.N,N/C*%
X86862500Y-90950000D03*
%TO.P,U3,5*%
%TO.N,V3V3_ESP*%
X86862500Y-92850000D03*
%TD*%
D32*
%TO.P,D7,1*%
%TO.N,BUS_GND*%
X111500000Y-105550000D03*
%TO.P,D7,2*%
%TO.N,BUS_HOT_F*%
X111500000Y-103450000D03*
%TD*%
D11*
%TO.P,Q4,1*%
%TO.N,TX_GATE*%
X88549000Y-111809000D03*
%TO.P,Q4,2*%
%TO.N,BUS_GND*%
X88549000Y-113709000D03*
%TO.P,Q4,3*%
%TO.N,TX_DRAIN_A*%
X90549000Y-112759000D03*
%TD*%
D30*
%TO.P,C23,1*%
%TO.N,BUS_PWR*%
X116200000Y-115705000D03*
%TO.P,C23,2*%
%TO.N,BUS_GND*%
X116200000Y-122295000D03*
%TD*%
D10*
%TO.P,LED1,1*%
%TO.N,PWR_LED_A*%
X84913000Y-94979000D03*
%TO.P,LED1,2*%
%TO.N,DGND*%
X83263000Y-94979000D03*
%TD*%
%TO.P,LED4,1*%
%TO.N,STAT_LED_A*%
X84913000Y-100313000D03*
%TO.P,LED4,2*%
%TO.N,DGND*%
X83263000Y-100313000D03*
%TD*%
D14*
%TO.P,R_DGND,1*%
%TO.N,DGND*%
X116900000Y-128475000D03*
%TO.P,R_DGND,2*%
%TO.N,GND*%
X116900000Y-130125000D03*
%TD*%
D10*
%TO.P,C_DCP2,1*%
%TO.N,V3V3_ESP*%
X87725000Y-85850000D03*
%TO.P,C_DCP2,2*%
%TO.N,DGND*%
X89375000Y-85850000D03*
%TD*%
D26*
%TO.P,Q2,1*%
%TO.N,EN_DRIVE*%
X115780000Y-83451300D03*
%TO.P,Q2,2*%
%TO.N,DGND*%
X117680000Y-83451300D03*
%TO.P,Q2,3*%
%TO.N,EN*%
X116730000Y-81248700D03*
%TD*%
D25*
%TO.P,L3,1*%
%TO.N,BUS_DC_RAW*%
X107900000Y-113237000D03*
%TO.P,L3,2*%
%TO.N,BUS_PWR*%
X107900000Y-119063000D03*
%TD*%
D10*
%TO.P,C1,1*%
%TO.N,BOOT_CAP*%
X100825000Y-130050000D03*
%TO.P,C1,2*%
%TO.N,SW_NODE*%
X99175000Y-130050000D03*
%TD*%
D33*
%TO.P,U2,1*%
%TO.N,DGND*%
X91250000Y-81840000D03*
%TO.P,U2,2*%
%TO.N,V3V3_ESP*%
X91250000Y-83110000D03*
%TO.P,U2,3*%
%TO.N,EN*%
X91250000Y-84380000D03*
%TO.P,U2,4*%
%TO.N,BUS_RX_PIN*%
X91250000Y-85650000D03*
%TO.P,U2,5*%
%TO.N,BUS_TX_PIN*%
X91250000Y-86920000D03*
%TO.P,U2,6*%
%TO.N,LED_PIN*%
X91250000Y-88190000D03*
%TO.P,U2,7*%
%TO.N,N/C*%
X91250000Y-89460000D03*
%TO.P,U2,8*%
X91250000Y-90730000D03*
%TO.P,U2,9*%
X91250000Y-92000000D03*
%TO.P,U2,10*%
X91250000Y-93270000D03*
%TO.P,U2,11*%
X91250000Y-94540000D03*
%TO.P,U2,12*%
X91250000Y-95810000D03*
%TO.P,U2,13*%
X91250000Y-97080000D03*
%TO.P,U2,14*%
X91250000Y-98350000D03*
D34*
%TO.P,U2,15*%
X93015000Y-99600000D03*
%TO.P,U2,16*%
X94285000Y-99600000D03*
%TO.P,U2,17*%
X95555000Y-99600000D03*
%TO.P,U2,18*%
X96825000Y-99600000D03*
%TO.P,U2,19*%
X98095000Y-99600000D03*
%TO.P,U2,20*%
X99365000Y-99600000D03*
%TO.P,U2,21*%
X100635000Y-99600000D03*
%TO.P,U2,22*%
X101905000Y-99600000D03*
%TO.P,U2,23*%
X103175000Y-99600000D03*
%TO.P,U2,24*%
X104445000Y-99600000D03*
%TO.P,U2,25*%
X105715000Y-99600000D03*
%TO.P,U2,26*%
X106985000Y-99600000D03*
D33*
%TO.P,U2,27*%
%TO.N,BOOT_STRAP*%
X108750000Y-98350000D03*
%TO.P,U2,28*%
%TO.N,N/C*%
X108750000Y-97080000D03*
%TO.P,U2,29*%
X108750000Y-95810000D03*
%TO.P,U2,30*%
X108750000Y-94540000D03*
%TO.P,U2,31*%
X108750000Y-93270000D03*
%TO.P,U2,32*%
X108750000Y-92000000D03*
%TO.P,U2,33*%
X108750000Y-90730000D03*
%TO.P,U2,34*%
X108750000Y-89460000D03*
%TO.P,U2,35*%
X108750000Y-88190000D03*
%TO.P,U2,36*%
%TO.N,RX*%
X108750000Y-86920000D03*
%TO.P,U2,37*%
%TO.N,TX*%
X108750000Y-85650000D03*
%TO.P,U2,38*%
%TO.N,N/C*%
X108750000Y-84380000D03*
%TO.P,U2,39*%
X108750000Y-83110000D03*
%TO.P,U2,40*%
%TO.N,DGND*%
X108750000Y-81840000D03*
D35*
%TO.P,U2,41*%
X97100000Y-88860000D03*
X97100000Y-90260000D03*
X97800000Y-88160000D03*
X97800000Y-89560000D03*
X97800000Y-90960000D03*
X98500000Y-88860000D03*
D36*
X98500000Y-89560000D03*
D35*
X98500000Y-90260000D03*
X99200000Y-88160000D03*
X99200000Y-89560000D03*
X99200000Y-90960000D03*
X99900000Y-88860000D03*
X99900000Y-90260000D03*
%TD*%
D37*
%TO.N,DGND*%
X117680000Y-82350000D03*
X81900000Y-100310000D03*
X82900000Y-85900000D03*
X97800000Y-88800000D03*
X99200000Y-88800000D03*
X84330000Y-81050000D03*
X91250000Y-81840000D03*
X108750000Y-81840000D03*
X89250000Y-100700000D03*
X115350000Y-87750000D03*
D38*
X113660000Y-83350000D03*
D37*
X89140000Y-91900000D03*
X89310000Y-89450000D03*
X120600000Y-128199999D03*
X82100000Y-90870000D03*
X89450000Y-82900000D03*
X81900000Y-98530000D03*
X97800000Y-90400000D03*
X95500000Y-86000000D03*
X81900000Y-94980000D03*
X95500000Y-82900000D03*
X99200000Y-90400000D03*
D38*
X113220000Y-93500000D03*
D37*
%TO.N,RTS*%
X119350000Y-90430000D03*
%TO.N,PGND*%
X96100000Y-129199999D03*
X106600000Y-126350000D03*
X86300000Y-130000000D03*
X109400000Y-126400000D03*
X101700000Y-126400000D03*
X85310000Y-128400000D03*
X100300000Y-126400000D03*
X112900000Y-127400000D03*
X100300000Y-124900000D03*
X98000000Y-115600000D03*
X79150000Y-127100000D03*
X101700000Y-124900000D03*
%TO.N,BUS_RX_PIN*%
X89500000Y-90450000D03*
X82200000Y-103900000D03*
%TO.N,V3V3_ESP*%
X88220000Y-94980000D03*
X91250000Y-83110000D03*
X88220000Y-96760000D03*
X85900000Y-114500000D03*
X85620000Y-93950000D03*
X79960000Y-105300000D03*
%TO.N,BUS_TX_PIN*%
X90050000Y-100420000D03*
X97420000Y-110950000D03*
%TO.N,FB_TAP*%
X97900000Y-122500000D03*
X105580000Y-128600000D03*
%TO.N,V3V3*%
X92900000Y-130199999D03*
X110470000Y-128850000D03*
%TO.N,EN*%
X85970000Y-81100000D03*
X90300000Y-84300000D03*
X117600000Y-80900000D03*
%TO.N,LED_PIN*%
X91250000Y-88190000D03*
X88400000Y-101300000D03*
%TO.N,BOOT_STRAP*%
X112350000Y-96750000D03*
X114300000Y-91900000D03*
%TO.N,BUS_FUSED*%
X121700000Y-106300000D03*
X121700000Y-111300000D03*
%TO.N,BUS_GND*%
X88550000Y-115350000D03*
X92870000Y-115350000D03*
X81000000Y-102200000D03*
X118600000Y-118500000D03*
X84400000Y-114600000D03*
X114550000Y-94300000D03*
X82600000Y-109000000D03*
X112500000Y-108500000D03*
%TD*%
D39*
%TO.N,DGND*%
X115780000Y-88450000D02*
X115500000Y-88000000D01*
X89380000Y-85850000D02*
X89380000Y-88200000D01*
D40*
X118000000Y-128199999D02*
X120600000Y-128199999D01*
D39*
X89310000Y-88200000D02*
X89310000Y-89450000D01*
X90280000Y-101450000D02*
X89600000Y-101050000D01*
D41*
X112800000Y-94200000D02*
X113220000Y-93500000D01*
D39*
X83260000Y-100310000D02*
X81900000Y-100310000D01*
X83260000Y-94980000D02*
X81900000Y-94980000D01*
D40*
X95500000Y-82900000D02*
X95500000Y-86000000D01*
D39*
X83400000Y-85500000D02*
X82900000Y-85900000D01*
X83260000Y-98530000D02*
X81900000Y-98530000D01*
X83910000Y-90870000D02*
X82100000Y-90870000D01*
X117680000Y-83450000D02*
X117680000Y-82350000D01*
X113660000Y-93100000D02*
X113660000Y-83350000D01*
X84330000Y-82030000D02*
X84330000Y-81050000D01*
X89600000Y-101050000D02*
X89250000Y-100700000D01*
X83380000Y-92600000D02*
X82500000Y-91800000D01*
X89450000Y-83100000D02*
X89450000Y-82900000D01*
D40*
X116900000Y-128470000D02*
X118000000Y-128199999D01*
D39*
X115500000Y-88000000D02*
X115350000Y-87750000D01*
X89380000Y-83550000D02*
X89450000Y-83100000D01*
X83910000Y-84870000D02*
X83400000Y-85500000D01*
D41*
X112280000Y-94980000D02*
X112800000Y-94200000D01*
D39*
X113220000Y-93500000D02*
X113660000Y-93100000D01*
X82500000Y-91800000D02*
X82100000Y-90870000D01*
D42*
%TO.N,BUS_HOT_F*%
X111600000Y-101900000D02*
X110400000Y-102450000D01*
X108200000Y-102450000D02*
X108200000Y-109650000D01*
X110400000Y-102450000D02*
X108200000Y-102450000D01*
X114900000Y-99900000D02*
X114200000Y-100900000D01*
X110400000Y-102450000D02*
X111500000Y-103050000D01*
X111500000Y-103050000D02*
X111500000Y-103450000D01*
X114200000Y-100900000D02*
X111600000Y-101900000D01*
X114710000Y-97200000D02*
X114900000Y-97650000D01*
X114900000Y-97650000D02*
X114900000Y-99900000D01*
%TO.N,BUS_DC_RAW*%
X106300000Y-112700000D02*
X107900000Y-113240000D01*
X104200000Y-111200000D02*
X106300000Y-112700000D01*
X104200000Y-109650000D02*
X104200000Y-111200000D01*
%TO.N,BUS_PWR*%
X107640000Y-122290000D02*
X105400000Y-122600000D01*
X116200000Y-115700000D02*
X116750000Y-113400000D01*
X105400000Y-125900000D02*
X104900000Y-126280000D01*
X105400000Y-122600000D02*
X105400000Y-125900000D01*
X116200000Y-115700000D02*
X110900000Y-118300000D01*
X110900000Y-118300000D02*
X107900000Y-119060000D01*
X107640000Y-120500000D02*
X107640000Y-122290000D01*
X116750000Y-113400000D02*
X116750000Y-111150000D01*
X107640000Y-122290000D02*
X110430000Y-122290000D01*
X107900000Y-119060000D02*
X107640000Y-120500000D01*
X104900000Y-126280000D02*
X103680000Y-126280000D01*
D40*
%TO.N,PGND*%
X107640000Y-125210000D02*
X106900000Y-126050000D01*
X112900000Y-128470000D02*
X112900000Y-127400000D01*
X86550000Y-129750000D02*
X86300000Y-130000000D01*
X109700000Y-126100000D02*
X109400000Y-126400000D01*
D43*
X99000000Y-116400000D02*
X98300000Y-115900000D01*
X103680000Y-123750000D02*
X102200000Y-124200000D01*
D40*
X87140000Y-129300000D02*
X86550000Y-129750000D01*
D43*
X98300000Y-115900000D02*
X98000000Y-115600000D01*
D40*
X110430000Y-125210000D02*
X109700000Y-126100000D01*
X95060000Y-129199999D02*
X96100000Y-129199999D01*
X85310000Y-127600000D02*
X85310000Y-128400000D01*
X79150000Y-125860000D02*
X79150000Y-127100000D01*
X106900000Y-126050000D02*
X106600000Y-126350000D01*
D41*
%TO.N,BUS_RX_A*%
X102800000Y-106280000D02*
X86900000Y-106280000D01*
X86320000Y-105600000D02*
X85870000Y-105270000D01*
X85420000Y-105270000D02*
X85420000Y-103360000D01*
X104200000Y-106050000D02*
X102800000Y-106280000D01*
X85870000Y-105270000D02*
X85420000Y-105270000D01*
X86900000Y-106280000D02*
X86320000Y-105600000D01*
D39*
%TO.N,BUS_RX_BIAS*%
X80400000Y-112000000D02*
X80400000Y-112800000D01*
X83770000Y-109460000D02*
X82900000Y-110150000D01*
X81890000Y-110150000D02*
X81000000Y-111300000D01*
X81000000Y-111300000D02*
X80400000Y-112000000D01*
X82900000Y-110150000D02*
X81890000Y-110150000D01*
%TO.N,BUS_RX_FILT*%
X83770000Y-105720000D02*
X84900000Y-106400000D01*
X85420000Y-107420000D02*
X85420000Y-109460000D01*
X84900000Y-106400000D02*
X85420000Y-106950000D01*
X85420000Y-106950000D02*
X85420000Y-107420000D01*
X83770000Y-103360000D02*
X83770000Y-105270000D01*
%TO.N,BUS_RX_DET*%
X83400000Y-101400000D02*
X86900000Y-101400000D01*
X82400000Y-105400000D02*
X82830000Y-104900000D01*
X89500000Y-93800000D02*
X89140000Y-93150000D01*
X87400000Y-95850000D02*
X89700000Y-95850000D01*
X81610000Y-105830000D02*
X82400000Y-105400000D01*
X79680000Y-109200000D02*
X79900000Y-107900000D01*
X82830000Y-104900000D02*
X82830000Y-101900000D01*
X89700000Y-95850000D02*
X89500000Y-93800000D01*
X87400000Y-100900000D02*
X87400000Y-95850000D01*
X86900000Y-101400000D02*
X87400000Y-100900000D01*
X79900000Y-107900000D02*
X81300000Y-107150000D01*
X82830000Y-101900000D02*
X83400000Y-101400000D01*
X81300000Y-107150000D02*
X81610000Y-106730000D01*
%TO.N,BUS_RX_PIN*%
X89140000Y-90650000D02*
X89400000Y-90520000D01*
X88550000Y-85450000D02*
X88750000Y-85050000D01*
X88400000Y-87450000D02*
X88550000Y-87250000D01*
X82200000Y-103900000D02*
X81790000Y-104310000D01*
X89400000Y-90520000D02*
X89500000Y-90450000D01*
X88550000Y-89150000D02*
X88400000Y-88950000D01*
X88550000Y-90050000D02*
X88550000Y-89150000D01*
X88400000Y-88950000D02*
X88400000Y-87450000D01*
X90600000Y-85650000D02*
X91250000Y-85650000D01*
X90160000Y-85050000D02*
X90160000Y-85400000D01*
X90160000Y-85400000D02*
X90600000Y-85650000D01*
X88750000Y-85050000D02*
X90160000Y-85050000D01*
X89140000Y-90650000D02*
X88550000Y-90050000D01*
X88550000Y-87250000D02*
X88550000Y-85450000D01*
%TO.N,RX_LED_K*%
X81500000Y-96900000D02*
X82500000Y-96760000D01*
X80500000Y-101200000D02*
X80500000Y-97600000D01*
X80500000Y-97600000D02*
X81500000Y-96900000D01*
X79790000Y-102000000D02*
X80500000Y-101200000D01*
X82500000Y-96760000D02*
X83260000Y-96760000D01*
X79790000Y-103010000D02*
X79790000Y-102000000D01*
D40*
%TO.N,V3V3_ESP*%
X85410000Y-115500000D02*
X85700000Y-114800000D01*
D39*
X88000000Y-89300000D02*
X87490000Y-88200000D01*
X90100000Y-82750000D02*
X90600000Y-83110000D01*
X85620000Y-93950000D02*
X85200000Y-93400000D01*
X89530000Y-81900000D02*
X90100000Y-82250000D01*
D40*
X85700000Y-114800000D02*
X85900000Y-114500000D01*
D41*
X87720000Y-83150000D02*
X87720000Y-83550000D01*
D39*
X85020000Y-92600000D02*
X86300000Y-92850000D01*
X90100000Y-82250000D02*
X90100000Y-82750000D01*
D41*
X88200000Y-83000000D02*
X87720000Y-83150000D01*
D39*
X88000000Y-92400000D02*
X88000000Y-89300000D01*
X86300000Y-92850000D02*
X86860000Y-92850000D01*
D41*
X87720000Y-83550000D02*
X87720000Y-85850000D01*
D39*
X85200000Y-93400000D02*
X85020000Y-92900000D01*
D41*
X87490000Y-87500000D02*
X87490000Y-88200000D01*
D39*
X79960000Y-105830000D02*
X79960000Y-105300000D01*
D41*
X89080000Y-82300000D02*
X88200000Y-83000000D01*
D39*
X87510000Y-92850000D02*
X88000000Y-92400000D01*
D41*
X87720000Y-85850000D02*
X87490000Y-87500000D01*
D39*
%TO.N,BUS_TX_PIN*%
X90160000Y-99900000D02*
X90050000Y-100420000D01*
X90600000Y-86920000D02*
X90160000Y-87300000D01*
X91550000Y-100600000D02*
X90050000Y-100420000D01*
X91920000Y-101450000D02*
X91550000Y-100600000D01*
X97420000Y-110950000D02*
X97420000Y-111930000D01*
X90160000Y-87300000D02*
X90160000Y-99900000D01*
X89300000Y-99300000D02*
X90050000Y-100420000D01*
X91250000Y-86920000D02*
X90600000Y-86920000D01*
X88670000Y-98530000D02*
X89300000Y-99300000D01*
D41*
%TO.N,TX_GATE*%
X96000000Y-116200000D02*
X96400000Y-115800000D01*
X96400000Y-113580000D02*
X97420000Y-113580000D01*
X93750000Y-112400000D02*
X93370000Y-111810000D01*
X87650000Y-112300000D02*
X87650000Y-115850000D01*
X93750000Y-116200000D02*
X93750000Y-112400000D01*
X87650000Y-115850000D02*
X88500000Y-116200000D01*
X88550000Y-111810000D02*
X88050000Y-111810000D01*
X88050000Y-111810000D02*
X87650000Y-112300000D01*
X96400000Y-115800000D02*
X96400000Y-113580000D01*
X88500000Y-116200000D02*
X96000000Y-116200000D01*
%TO.N,TX_DRAIN_A*%
X88250000Y-109240000D02*
X92230000Y-109240000D01*
X90550000Y-112760000D02*
X90550000Y-109240000D01*
%TO.N,TX_DRAIN_B*%
X94870000Y-112760000D02*
X94870000Y-109240000D01*
X94870000Y-109240000D02*
X96210000Y-109240000D01*
X96210000Y-109240000D02*
X100190000Y-109240000D01*
%TO.N,BUS_TX*%
X88250000Y-103320000D02*
X100190000Y-103320000D01*
X103200000Y-102450000D02*
X104200000Y-102450000D01*
X100190000Y-103320000D02*
X102300000Y-103100000D01*
X102300000Y-103100000D02*
X103200000Y-102450000D01*
%TO.N,BOOT_CAP*%
X103300000Y-129400000D02*
X103680000Y-128300000D01*
X103680000Y-128300000D02*
X103680000Y-127560000D01*
X100830000Y-130050000D02*
X103300000Y-129400000D01*
D39*
%TO.N,FB_TAP*%
X108400000Y-128600000D02*
X108830000Y-128199999D01*
X105580000Y-128600000D02*
X108400000Y-128600000D01*
X108830000Y-128199999D02*
X108830000Y-127850000D01*
X97950000Y-123100000D02*
X97900000Y-122500000D01*
X98280000Y-123750000D02*
X97950000Y-123100000D01*
X105580000Y-128600000D02*
X105580000Y-127850000D01*
D42*
%TO.N,SW_NODE*%
X97000000Y-126280000D02*
X98280000Y-126280000D01*
D43*
X97600000Y-129600000D02*
X97000000Y-129000000D01*
D42*
X99000000Y-120400000D02*
X97000000Y-121600000D01*
D43*
X97000000Y-129000000D02*
X97000000Y-126280000D01*
D42*
X96800000Y-126280000D02*
X98280000Y-126280000D01*
X97000000Y-121600000D02*
X97000000Y-126280000D01*
X93290000Y-125510000D02*
X96800000Y-126280000D01*
D43*
X99170000Y-130050000D02*
X97600000Y-129600000D01*
D40*
%TO.N,V3V3*%
X92140000Y-129199999D02*
X92850000Y-130000000D01*
D43*
X79150000Y-122500000D02*
X79150000Y-122940000D01*
D40*
X83590000Y-116350000D02*
X83590000Y-116000000D01*
D43*
X80800000Y-121600000D02*
X79150000Y-122500000D01*
D40*
X84200000Y-116850000D02*
X83590000Y-116350000D01*
D43*
X85310000Y-119310000D02*
X80800000Y-121600000D01*
D40*
X110470000Y-128850000D02*
X110470000Y-127600000D01*
X90060000Y-129300000D02*
X92140000Y-129199999D01*
D43*
X86600000Y-120900000D02*
X86600000Y-127400000D01*
X86600000Y-127400000D02*
X89300000Y-128300000D01*
D42*
X93290000Y-119690000D02*
X87000000Y-119400000D01*
D43*
X85310000Y-120000000D02*
X86600000Y-120900000D01*
X90060000Y-128900000D02*
X90060000Y-129300000D01*
D40*
X85310000Y-117600000D02*
X84200000Y-116850000D01*
D43*
X89300000Y-128300000D02*
X90060000Y-128900000D01*
D40*
X92850000Y-130000000D02*
X92900000Y-130199999D01*
D42*
X87000000Y-119400000D02*
X85310000Y-119310000D01*
D39*
%TO.N,EN*%
X86900000Y-83000000D02*
X87300000Y-82400000D01*
X85970000Y-82480000D02*
X86500000Y-83000000D01*
X117600000Y-80900000D02*
X117300000Y-80950000D01*
X86500000Y-83000000D02*
X86900000Y-83000000D01*
X85200000Y-83000000D02*
X85970000Y-82480000D01*
X87420000Y-82300000D02*
X87420000Y-81900000D01*
X85970000Y-81580000D02*
X85970000Y-81100000D01*
X83600000Y-83000000D02*
X85200000Y-83000000D01*
X90300000Y-84300000D02*
X90600000Y-84380000D01*
X87300000Y-82400000D02*
X87420000Y-82300000D01*
X117300000Y-80950000D02*
X116730000Y-81250000D01*
X90600000Y-84380000D02*
X91250000Y-84380000D01*
X82780000Y-82480000D02*
X83600000Y-83000000D01*
%TO.N,RX*%
X108750000Y-86920000D02*
X110500000Y-86920000D01*
X111300000Y-87360000D02*
X112280000Y-87360000D01*
X110500000Y-86920000D02*
X111300000Y-87360000D01*
%TO.N,LED_PIN*%
X88400000Y-100550000D02*
X88220000Y-100310000D01*
X88400000Y-101300000D02*
X88400000Y-100550000D01*
%TO.N,BOOT_STRAP*%
X110800000Y-97900000D02*
X110000000Y-98300000D01*
X116730000Y-90650000D02*
X115500000Y-90900000D01*
X112350000Y-96750000D02*
X110800000Y-97900000D01*
X115500000Y-90900000D02*
X114500000Y-91500000D01*
X114500000Y-91500000D02*
X114300000Y-91900000D01*
X110000000Y-98300000D02*
X109500000Y-98350000D01*
%TO.N,EN_DRIVE*%
X117900000Y-85900000D02*
X118900000Y-87400000D01*
X115780000Y-83950000D02*
X116750000Y-84600000D01*
X118900000Y-87400000D02*
X119350000Y-88300000D01*
X116750000Y-84600000D02*
X117900000Y-85900000D01*
X119350000Y-88300000D02*
X119350000Y-88770000D01*
%TO.N,D0_DRIVE*%
X116650000Y-87900000D02*
X117200000Y-88450000D01*
X115710000Y-86780000D02*
X116650000Y-87350000D01*
X117200000Y-88450000D02*
X117680000Y-88450000D01*
X116650000Y-87350000D02*
X116650000Y-87900000D01*
%TO.N,RST_BTN*%
X80210000Y-84870000D02*
X80210000Y-90870000D01*
X80720000Y-82030000D02*
X80210000Y-82700000D01*
X80210000Y-82700000D02*
X80210000Y-84870000D01*
%TO.N,PWR_LED_A*%
X84910000Y-94980000D02*
X86560000Y-94980000D01*
%TO.N,TX_LED_A*%
X84910000Y-98530000D02*
X86560000Y-98530000D01*
%TO.N,RX_LED_A*%
X84910000Y-96760000D02*
X86560000Y-96760000D01*
%TO.N,STAT_LED_A*%
X84910000Y-100310000D02*
X86560000Y-100310000D01*
D43*
%TO.N,GND*%
X112900000Y-130120000D02*
X116900000Y-130120000D01*
D39*
%TO.N,TX*%
X111400000Y-84820000D02*
X112280000Y-84820000D01*
X110500000Y-85650000D02*
X111400000Y-84820000D01*
X108750000Y-85650000D02*
X110500000Y-85650000D01*
%TO.N,DTR*%
X114850000Y-84500000D02*
X115260000Y-85120000D01*
X114850000Y-83300000D02*
X114850000Y-84500000D01*
X114400000Y-82400000D02*
X114850000Y-83300000D01*
X112280000Y-82280000D02*
X114400000Y-82400000D01*
D42*
%TO.N,BUS_RTN*%
X116350000Y-95600000D02*
X117300000Y-94700000D01*
X117900000Y-93200000D02*
X118900000Y-94000000D01*
X118900000Y-94000000D02*
X119270000Y-94700000D01*
X117300000Y-94700000D02*
X119270000Y-94700000D01*
X117000000Y-100960000D02*
X116350000Y-99600000D01*
X116350000Y-99600000D02*
X116350000Y-95600000D01*
%TO.N,BUS_HOT*%
X117000000Y-107900000D02*
X118200000Y-108900000D01*
X117000000Y-106040000D02*
X117000000Y-107900000D01*
X119900000Y-109600000D02*
X120600000Y-109790000D01*
X118200000Y-108900000D02*
X119900000Y-109600000D01*
D44*
%TO.N,BUS_FUSED*%
X116350000Y-92400000D02*
X116900000Y-91930000D01*
D45*
X120600000Y-112710000D02*
X121400000Y-112200000D01*
D44*
X116900000Y-91930000D02*
X119300000Y-91930000D01*
D42*
X121700000Y-98700000D02*
X120500000Y-97300000D01*
D44*
X115800000Y-92950000D02*
X116350000Y-92400000D01*
D45*
X121700000Y-111700000D02*
X121700000Y-111300000D01*
D42*
X121700000Y-93400000D02*
X121700000Y-98700000D01*
X120500000Y-97300000D02*
X119270000Y-97200000D01*
D45*
X121400000Y-112200000D02*
X121700000Y-111700000D01*
D42*
X119300000Y-91930000D02*
X121700000Y-93400000D01*
X121700000Y-106300000D02*
X121700000Y-98700000D01*
D39*
%TO.N,BUS_GND*%
X82850000Y-108750000D02*
X82600000Y-109000000D01*
X83300000Y-108200000D02*
X82850000Y-108750000D01*
D40*
X114600000Y-94500000D02*
X114550000Y-94300000D01*
X114710000Y-94700000D02*
X114600000Y-94500000D01*
D39*
X81790000Y-102410000D02*
X81000000Y-102200000D01*
D40*
X115400000Y-127500000D02*
X115400000Y-122900000D01*
D41*
X84400000Y-112800000D02*
X84400000Y-114600000D01*
X92870000Y-113710000D02*
X92870000Y-115350000D01*
X88550000Y-113710000D02*
X88550000Y-115350000D01*
D39*
X81890000Y-108250000D02*
X82600000Y-109000000D01*
X83770000Y-107420000D02*
X83300000Y-108200000D01*
D40*
X114900000Y-128470000D02*
X115400000Y-127500000D01*
%TD*%
%TA.AperFunction,Conductor*%
%TO.N,BUS_GND*%
G36*
X118471712Y-109985734D02*
G01*
X119147713Y-110264087D01*
X119202208Y-110307814D01*
X119224411Y-110374062D01*
X119224500Y-110378741D01*
X119224500Y-110397867D01*
X119224501Y-110397876D01*
X119230908Y-110457483D01*
X119281202Y-110592328D01*
X119281206Y-110592335D01*
X119367452Y-110707544D01*
X119367455Y-110707547D01*
X119482663Y-110793792D01*
X119482665Y-110793793D01*
X119482669Y-110793796D01*
X119482673Y-110793797D01*
X119485424Y-110795300D01*
X119487649Y-110797525D01*
X119489769Y-110799112D01*
X119489540Y-110799416D01*
X119534831Y-110844704D01*
X119550000Y-110904134D01*
X119550000Y-111595865D01*
X119530315Y-111662904D01*
X119489666Y-111700751D01*
X119489769Y-111700888D01*
X119488496Y-111701840D01*
X119485432Y-111704694D01*
X119482670Y-111706202D01*
X119367455Y-111792452D01*
X119367452Y-111792455D01*
X119281206Y-111907664D01*
X119281202Y-111907671D01*
X119230908Y-112042517D01*
X119224501Y-112102116D01*
X119224500Y-112102135D01*
X119224500Y-113322870D01*
X119224501Y-113322876D01*
X119230908Y-113382483D01*
X119281202Y-113517328D01*
X119281206Y-113517335D01*
X119367452Y-113632544D01*
X119367455Y-113632547D01*
X119482663Y-113718792D01*
X119482665Y-113718793D01*
X119482669Y-113718796D01*
X119482673Y-113718797D01*
X119485424Y-113720300D01*
X119487649Y-113722525D01*
X119489769Y-113724112D01*
X119489540Y-113724416D01*
X119534831Y-113769704D01*
X119550000Y-113829134D01*
X119550000Y-123176000D01*
X119530315Y-123243039D01*
X119477511Y-123288794D01*
X119426000Y-123300000D01*
X117254000Y-123300000D01*
X117186961Y-123280315D01*
X117141206Y-123227511D01*
X117130000Y-123176000D01*
X117130000Y-122545000D01*
X115270001Y-122545000D01*
X115270001Y-123176000D01*
X115250316Y-123243039D01*
X115197512Y-123288794D01*
X115146001Y-123300000D01*
X114772707Y-123300000D01*
X114705668Y-123280315D01*
X114672389Y-123248886D01*
X114664254Y-123237689D01*
X114607923Y-123160156D01*
X114453844Y-123006077D01*
X114277558Y-122877997D01*
X114083406Y-122779072D01*
X114083403Y-122779070D01*
X113876170Y-122711737D01*
X113660956Y-122677650D01*
X113660951Y-122677650D01*
X113443049Y-122677650D01*
X113443044Y-122677650D01*
X113227829Y-122711737D01*
X113020596Y-122779070D01*
X113020593Y-122779072D01*
X112826441Y-122877997D01*
X112725863Y-122951071D01*
X112650156Y-123006077D01*
X112650154Y-123006079D01*
X112650153Y-123006079D01*
X112496079Y-123160153D01*
X112496079Y-123160154D01*
X112496077Y-123160156D01*
X112439746Y-123237689D01*
X112431611Y-123248886D01*
X112376281Y-123291551D01*
X112331293Y-123300000D01*
X111579333Y-123300000D01*
X111512294Y-123280315D01*
X111466539Y-123227511D01*
X111456595Y-123158353D01*
X111485620Y-123094797D01*
X111491652Y-123088319D01*
X111511656Y-123068315D01*
X111557206Y-123022765D01*
X111602585Y-122919991D01*
X111605500Y-122894865D01*
X111605499Y-121680136D01*
X111605497Y-121680117D01*
X111602586Y-121655012D01*
X111602585Y-121655010D01*
X111602585Y-121655009D01*
X111557206Y-121552235D01*
X111477765Y-121472794D01*
X111470438Y-121469559D01*
X111374992Y-121427415D01*
X111349865Y-121424500D01*
X109510143Y-121424500D01*
X109510117Y-121424502D01*
X109485012Y-121427413D01*
X109485008Y-121427415D01*
X109382235Y-121472793D01*
X109382234Y-121472794D01*
X109301848Y-121553181D01*
X109240525Y-121586666D01*
X109214167Y-121589500D01*
X108855833Y-121589500D01*
X108788794Y-121569815D01*
X108768152Y-121553181D01*
X108687765Y-121472794D01*
X108584992Y-121427415D01*
X108559868Y-121424500D01*
X108559865Y-121424500D01*
X108464500Y-121424500D01*
X108397461Y-121404815D01*
X108351706Y-121352011D01*
X108340500Y-121300500D01*
X108340500Y-120573838D01*
X108342473Y-120551809D01*
X108344520Y-120540470D01*
X108375801Y-120477994D01*
X108431078Y-120445205D01*
X115270000Y-120445205D01*
X115270000Y-122044999D01*
X115270002Y-122045000D01*
X115950000Y-122045000D01*
X116450000Y-122045000D01*
X117129999Y-122045000D01*
X117129999Y-120445214D01*
X117129997Y-120445191D01*
X117127091Y-120420130D01*
X117127090Y-120420126D01*
X117081788Y-120317525D01*
X117081785Y-120317520D01*
X117002479Y-120238214D01*
X117002474Y-120238211D01*
X116899876Y-120192910D01*
X116874794Y-120190000D01*
X116450000Y-120190000D01*
X116450000Y-122045000D01*
X115950000Y-122045000D01*
X115950000Y-120190000D01*
X115525214Y-120190000D01*
X115525191Y-120190002D01*
X115500130Y-120192908D01*
X115500126Y-120192909D01*
X115397525Y-120238211D01*
X115397520Y-120238214D01*
X115318214Y-120317520D01*
X115318211Y-120317525D01*
X115272910Y-120420122D01*
X115272910Y-120420124D01*
X115270000Y-120445205D01*
X108431078Y-120445205D01*
X108435894Y-120442348D01*
X108466547Y-120438499D01*
X109604856Y-120438499D01*
X109604864Y-120438499D01*
X109604879Y-120438497D01*
X109604882Y-120438497D01*
X109629987Y-120435586D01*
X109629988Y-120435585D01*
X109629991Y-120435585D01*
X109732765Y-120390206D01*
X109812206Y-120310765D01*
X109857585Y-120207991D01*
X109860500Y-120182865D01*
X109860499Y-119382470D01*
X109880183Y-119315432D01*
X109932987Y-119269677D01*
X109954038Y-119262271D01*
X111009125Y-118994983D01*
X111013218Y-118994724D01*
X111075955Y-118978053D01*
X111138906Y-118962106D01*
X111138923Y-118962097D01*
X111142027Y-118960978D01*
X111142187Y-118960928D01*
X111143456Y-118960454D01*
X111143456Y-118960453D01*
X111143468Y-118960449D01*
X111146563Y-118959291D01*
X111146577Y-118959288D01*
X111204301Y-118930969D01*
X111205529Y-118930376D01*
X111223896Y-118921629D01*
X111263486Y-118902775D01*
X111263490Y-118902771D01*
X111266336Y-118901056D01*
X111275761Y-118895913D01*
X115090888Y-117024341D01*
X115159744Y-117012489D01*
X115224079Y-117039744D01*
X115263465Y-117097455D01*
X115269500Y-117135668D01*
X115269500Y-117554856D01*
X115269502Y-117554882D01*
X115272413Y-117579987D01*
X115272415Y-117579991D01*
X115317793Y-117682764D01*
X115317794Y-117682765D01*
X115397235Y-117762206D01*
X115500009Y-117807585D01*
X115525135Y-117810500D01*
X116874864Y-117810499D01*
X116874879Y-117810497D01*
X116874882Y-117810497D01*
X116899987Y-117807586D01*
X116899988Y-117807585D01*
X116899991Y-117807585D01*
X117002765Y-117762206D01*
X117082206Y-117682765D01*
X117127585Y-117579991D01*
X117130500Y-117554865D01*
X117130499Y-114835397D01*
X117133899Y-114806559D01*
X117418397Y-113616839D01*
X117423580Y-113604328D01*
X117434414Y-113549859D01*
X117447338Y-113495816D01*
X117447857Y-113482276D01*
X117450500Y-113468993D01*
X117450500Y-113413444D01*
X117452631Y-113357931D01*
X117452044Y-113354244D01*
X117450500Y-113334739D01*
X117450500Y-112724499D01*
X117470185Y-112657460D01*
X117522989Y-112611705D01*
X117574500Y-112600499D01*
X118044856Y-112600499D01*
X118044864Y-112600499D01*
X118044879Y-112600497D01*
X118044882Y-112600497D01*
X118069987Y-112597586D01*
X118069988Y-112597585D01*
X118069991Y-112597585D01*
X118172765Y-112552206D01*
X118252206Y-112472765D01*
X118297585Y-112369991D01*
X118300500Y-112344865D01*
X118300499Y-110100393D01*
X118320184Y-110033355D01*
X118372987Y-109987600D01*
X118442146Y-109977656D01*
X118471712Y-109985734D01*
G37*
%TD.AperFunction*%
%TA.AperFunction,Conductor*%
G36*
X113942539Y-99169685D02*
G01*
X113988294Y-99222489D01*
X113999500Y-99274000D01*
X113999500Y-99577054D01*
X113979815Y-99644093D01*
X113977095Y-99648148D01*
X113787677Y-99918744D01*
X113641736Y-100127232D01*
X113587165Y-100170864D01*
X113584664Y-100171857D01*
X111340781Y-101034888D01*
X111340782Y-101034889D01*
X111333029Y-101037871D01*
X111305428Y-101044434D01*
X111250438Y-101069637D01*
X111246806Y-101071034D01*
X111246804Y-101071034D01*
X111193961Y-101091359D01*
X111193959Y-101091360D01*
X111176988Y-101102083D01*
X111162421Y-101109977D01*
X110228068Y-101538224D01*
X110217468Y-101540537D01*
X110211338Y-101544477D01*
X110176403Y-101549500D01*
X110066977Y-101549500D01*
X109999938Y-101529815D01*
X109954183Y-101477011D01*
X109946733Y-101449865D01*
X109945876Y-101450068D01*
X109944092Y-101442520D01*
X109893797Y-101307671D01*
X109893793Y-101307664D01*
X109807547Y-101192455D01*
X109807544Y-101192452D01*
X109692335Y-101106206D01*
X109692328Y-101106202D01*
X109557482Y-101055908D01*
X109557483Y-101055908D01*
X109497883Y-101049501D01*
X109497881Y-101049500D01*
X109497873Y-101049500D01*
X109497864Y-101049500D01*
X106902129Y-101049500D01*
X106902123Y-101049501D01*
X106842516Y-101055908D01*
X106707671Y-101106202D01*
X106707664Y-101106206D01*
X106592455Y-101192452D01*
X106592452Y-101192455D01*
X106506206Y-101307664D01*
X106506202Y-101307671D01*
X106455908Y-101442517D01*
X106449501Y-101502116D01*
X106449500Y-101502135D01*
X106449500Y-103397870D01*
X106449501Y-103397876D01*
X106455908Y-103457483D01*
X106506202Y-103592328D01*
X106506206Y-103592335D01*
X106592452Y-103707544D01*
X106592455Y-103707547D01*
X106707664Y-103793793D01*
X106707671Y-103793797D01*
X106752618Y-103810561D01*
X106842517Y-103844091D01*
X106902127Y-103850500D01*
X107175501Y-103850499D01*
X107242539Y-103870183D01*
X107288294Y-103922987D01*
X107299500Y-103974499D01*
X107299500Y-104525500D01*
X107279815Y-104592539D01*
X107227011Y-104638294D01*
X107175500Y-104649500D01*
X106902130Y-104649500D01*
X106902123Y-104649501D01*
X106842516Y-104655908D01*
X106707671Y-104706202D01*
X106707664Y-104706206D01*
X106592455Y-104792452D01*
X106592452Y-104792455D01*
X106506206Y-104907664D01*
X106506202Y-104907671D01*
X106455908Y-105042517D01*
X106449559Y-105101577D01*
X106449501Y-105102123D01*
X106449500Y-105102135D01*
X106449500Y-106997870D01*
X106449501Y-106997876D01*
X106455908Y-107057483D01*
X106506202Y-107192328D01*
X106506206Y-107192335D01*
X106592452Y-107307544D01*
X106592455Y-107307547D01*
X106707664Y-107393793D01*
X106707671Y-107393797D01*
X106752618Y-107410561D01*
X106842517Y-107444091D01*
X106902127Y-107450500D01*
X107175501Y-107450499D01*
X107242539Y-107470183D01*
X107288294Y-107522987D01*
X107299500Y-107574499D01*
X107299500Y-108125500D01*
X107279815Y-108192539D01*
X107227011Y-108238294D01*
X107175500Y-108249500D01*
X106902130Y-108249500D01*
X106902123Y-108249501D01*
X106842516Y-108255908D01*
X106707671Y-108306202D01*
X106707664Y-108306206D01*
X106592455Y-108392452D01*
X106592452Y-108392455D01*
X106506206Y-108507664D01*
X106506202Y-108507671D01*
X106455908Y-108642517D01*
X106449501Y-108702116D01*
X106449501Y-108702123D01*
X106449500Y-108702135D01*
X106449500Y-110597870D01*
X106449501Y-110597876D01*
X106455908Y-110657483D01*
X106506202Y-110792328D01*
X106506206Y-110792335D01*
X106592452Y-110907544D01*
X106592455Y-110907547D01*
X106707664Y-110993793D01*
X106707671Y-110993797D01*
X106842517Y-111044091D01*
X106842516Y-111044091D01*
X106849444Y-111044835D01*
X106902127Y-111050500D01*
X109497872Y-111050499D01*
X109557483Y-111044091D01*
X109692331Y-110993796D01*
X109807546Y-110907546D01*
X109893796Y-110792331D01*
X109944091Y-110657483D01*
X109950500Y-110597873D01*
X109950499Y-109955205D01*
X110900000Y-109955205D01*
X110900000Y-110900000D01*
X112200000Y-110900000D01*
X112700000Y-110900000D01*
X113999999Y-110900000D01*
X113999999Y-109955214D01*
X113999997Y-109955191D01*
X113997091Y-109930130D01*
X113997090Y-109930126D01*
X113951788Y-109827525D01*
X113951785Y-109827520D01*
X113872479Y-109748214D01*
X113872474Y-109748211D01*
X113769876Y-109702910D01*
X113744794Y-109700000D01*
X112700000Y-109700000D01*
X112700000Y-110900000D01*
X112200000Y-110900000D01*
X112200000Y-109700000D01*
X111155214Y-109700000D01*
X111155191Y-109700002D01*
X111130130Y-109702908D01*
X111130126Y-109702909D01*
X111027525Y-109748211D01*
X111027520Y-109748214D01*
X110948214Y-109827520D01*
X110948211Y-109827525D01*
X110902910Y-109930122D01*
X110902910Y-109930124D01*
X110900000Y-109955205D01*
X109950499Y-109955205D01*
X109950499Y-109648562D01*
X109950499Y-108702129D01*
X109950498Y-108702123D01*
X109950497Y-108702116D01*
X109944091Y-108642517D01*
X109938107Y-108626474D01*
X109893797Y-108507671D01*
X109893793Y-108507664D01*
X109807547Y-108392455D01*
X109807544Y-108392452D01*
X109692335Y-108306206D01*
X109692328Y-108306202D01*
X109557482Y-108255908D01*
X109557483Y-108255908D01*
X109497883Y-108249501D01*
X109497881Y-108249500D01*
X109497873Y-108249500D01*
X109497865Y-108249500D01*
X109224500Y-108249500D01*
X109157461Y-108229815D01*
X109111706Y-108177011D01*
X109100500Y-108125500D01*
X109100500Y-107574499D01*
X109120185Y-107507460D01*
X109172989Y-107461705D01*
X109224500Y-107450499D01*
X109497871Y-107450499D01*
X109497872Y-107450499D01*
X109557483Y-107444091D01*
X109692331Y-107393796D01*
X109807546Y-107307546D01*
X109893796Y-107192331D01*
X109944091Y-107057483D01*
X109950500Y-106997873D01*
X109950499Y-105894785D01*
X110975001Y-105894785D01*
X110975002Y-105894808D01*
X110977908Y-105919869D01*
X110977909Y-105919873D01*
X111023211Y-106022474D01*
X111023214Y-106022479D01*
X111102520Y-106101785D01*
X111102525Y-106101788D01*
X111205123Y-106147089D01*
X111230205Y-106149999D01*
X111274999Y-106149999D01*
X111725000Y-106149999D01*
X111769786Y-106149999D01*
X111769808Y-106149997D01*
X111794869Y-106147091D01*
X111794873Y-106147090D01*
X111897474Y-106101788D01*
X111897479Y-106101785D01*
X111976785Y-106022479D01*
X111976788Y-106022474D01*
X112022089Y-105919877D01*
X112022089Y-105919875D01*
X112024999Y-105894794D01*
X112025000Y-105894791D01*
X112025000Y-105775000D01*
X111725000Y-105775000D01*
X111725000Y-106149999D01*
X111274999Y-106149999D01*
X111275000Y-106149998D01*
X111275000Y-105775000D01*
X110975001Y-105775000D01*
X110975001Y-105894785D01*
X109950499Y-105894785D01*
X109950499Y-105205205D01*
X110975000Y-105205205D01*
X110975000Y-105325000D01*
X111275000Y-105325000D01*
X111725000Y-105325000D01*
X112024999Y-105325000D01*
X112024999Y-105205214D01*
X112024997Y-105205191D01*
X112022091Y-105180130D01*
X112022090Y-105180126D01*
X111976788Y-105077525D01*
X111976785Y-105077520D01*
X111897479Y-104998214D01*
X111897474Y-104998211D01*
X111794876Y-104952910D01*
X111769794Y-104950000D01*
X111725000Y-104950000D01*
X111725000Y-105325000D01*
X111275000Y-105325000D01*
X111275000Y-104950000D01*
X111230203Y-104950000D01*
X111205130Y-104952908D01*
X111205126Y-104952909D01*
X111102525Y-104998211D01*
X111102520Y-104998214D01*
X111023214Y-105077520D01*
X111023211Y-105077525D01*
X110977910Y-105180122D01*
X110977910Y-105180124D01*
X110975000Y-105205205D01*
X109950499Y-105205205D01*
X109950499Y-105102128D01*
X109944091Y-105042517D01*
X109919742Y-104977235D01*
X109893797Y-104907671D01*
X109893793Y-104907664D01*
X109807547Y-104792455D01*
X109807544Y-104792452D01*
X109692335Y-104706206D01*
X109692328Y-104706202D01*
X109557482Y-104655908D01*
X109557483Y-104655908D01*
X109497883Y-104649501D01*
X109497881Y-104649500D01*
X109497873Y-104649500D01*
X109497865Y-104649500D01*
X109224500Y-104649500D01*
X109157461Y-104629815D01*
X109111706Y-104577011D01*
X109100500Y-104525500D01*
X109100500Y-103974499D01*
X109120185Y-103907460D01*
X109172989Y-103861705D01*
X109224500Y-103850499D01*
X109497871Y-103850499D01*
X109497872Y-103850499D01*
X109557483Y-103844091D01*
X109692331Y-103793796D01*
X109807546Y-103707546D01*
X109893796Y-103592331D01*
X109944091Y-103457483D01*
X109944091Y-103457481D01*
X109944238Y-103456858D01*
X109944238Y-103456853D01*
X109944242Y-103456843D01*
X109945874Y-103449938D01*
X109947247Y-103450262D01*
X109957869Y-103427003D01*
X109970429Y-103396688D01*
X109972311Y-103395381D01*
X109973263Y-103393297D01*
X110000861Y-103375560D01*
X110027823Y-103356843D01*
X110030716Y-103356374D01*
X110032041Y-103355523D01*
X110066976Y-103350500D01*
X110138759Y-103350500D01*
X110198136Y-103365640D01*
X110365359Y-103456853D01*
X110558812Y-103562373D01*
X110608239Y-103611756D01*
X110621051Y-103647039D01*
X110634104Y-103712661D01*
X110634107Y-103712670D01*
X110701983Y-103876540D01*
X110701990Y-103876553D01*
X110800535Y-104024034D01*
X110800538Y-104024038D01*
X110925961Y-104149461D01*
X110925965Y-104149464D01*
X111073446Y-104248009D01*
X111073459Y-104248016D01*
X111196363Y-104298923D01*
X111237334Y-104315894D01*
X111237336Y-104315894D01*
X111237341Y-104315896D01*
X111411304Y-104350499D01*
X111411307Y-104350500D01*
X111411309Y-104350500D01*
X111588693Y-104350500D01*
X111588694Y-104350499D01*
X111646682Y-104338964D01*
X111762658Y-104315896D01*
X111762661Y-104315894D01*
X111762666Y-104315894D01*
X111926547Y-104248013D01*
X112074035Y-104149464D01*
X112199464Y-104024035D01*
X112298013Y-103876547D01*
X112365894Y-103712666D01*
X112366913Y-103707547D01*
X112400499Y-103538695D01*
X112400500Y-103538693D01*
X112400500Y-103098063D01*
X112404825Y-103057666D01*
X112400500Y-103009582D01*
X112400500Y-102961309D01*
X112393863Y-102927946D01*
X112391980Y-102914870D01*
X112388934Y-102880997D01*
X112376880Y-102840015D01*
X112374225Y-102829222D01*
X112365894Y-102787334D01*
X112352872Y-102755898D01*
X112348599Y-102743860D01*
X112348583Y-102743809D01*
X112338882Y-102710821D01*
X112338588Y-102710260D01*
X112336725Y-102704006D01*
X112336608Y-102674704D01*
X112333724Y-102645550D01*
X112336471Y-102640174D01*
X112336448Y-102634137D01*
X112352193Y-102609421D01*
X112365528Y-102583338D01*
X112371251Y-102579506D01*
X112373989Y-102575210D01*
X112385839Y-102569741D01*
X112411050Y-102552865D01*
X114434961Y-101774438D01*
X114441856Y-101772154D01*
X114443834Y-101771384D01*
X114443836Y-101771384D01*
X114524976Y-101739817D01*
X114606040Y-101708639D01*
X114607516Y-101707706D01*
X114609149Y-101707071D01*
X114682525Y-101660310D01*
X114755996Y-101613887D01*
X114757259Y-101612685D01*
X114758735Y-101611745D01*
X114758736Y-101611743D01*
X114758739Y-101611742D01*
X114821461Y-101551681D01*
X114884586Y-101491700D01*
X114884594Y-101491687D01*
X114885767Y-101490332D01*
X114885767Y-101490331D01*
X114886819Y-101489114D01*
X114886854Y-101489063D01*
X114886857Y-101489061D01*
X114936649Y-101417928D01*
X114986866Y-101346775D01*
X114986868Y-101346770D01*
X114988102Y-101345022D01*
X114991974Y-101338892D01*
X115333916Y-100850403D01*
X115388486Y-100806773D01*
X115457984Y-100799570D01*
X115520343Y-100831084D01*
X115555765Y-100891309D01*
X115559500Y-100921515D01*
X115559500Y-101073369D01*
X115587396Y-101249501D01*
X115594970Y-101297318D01*
X115662494Y-101505135D01*
X115665038Y-101512962D01*
X115767976Y-101714990D01*
X115901242Y-101898416D01*
X115901246Y-101898421D01*
X116061578Y-102058753D01*
X116061583Y-102058757D01*
X116245009Y-102192023D01*
X116245011Y-102192024D01*
X116245014Y-102192026D01*
X116447040Y-102294963D01*
X116662682Y-102365030D01*
X116886630Y-102400500D01*
X116886631Y-102400500D01*
X117113369Y-102400500D01*
X117113370Y-102400500D01*
X117337318Y-102365030D01*
X117552960Y-102294963D01*
X117754986Y-102192026D01*
X117938423Y-102058752D01*
X118098752Y-101898423D01*
X118232026Y-101714986D01*
X118334963Y-101512960D01*
X118405030Y-101297318D01*
X118440500Y-101073370D01*
X118440500Y-100846630D01*
X118405030Y-100622682D01*
X118334963Y-100407040D01*
X118232026Y-100205014D01*
X118232024Y-100205011D01*
X118232023Y-100205009D01*
X118098757Y-100021583D01*
X118098753Y-100021578D01*
X117938421Y-99861246D01*
X117938416Y-99861242D01*
X117754990Y-99727976D01*
X117552964Y-99625038D01*
X117375173Y-99567270D01*
X117348588Y-99549091D01*
X117321209Y-99532163D01*
X117319006Y-99528863D01*
X117317498Y-99527832D01*
X117301613Y-99502809D01*
X117262621Y-99421224D01*
X117250500Y-99367754D01*
X117250500Y-99274000D01*
X117270185Y-99206961D01*
X117322989Y-99161206D01*
X117374500Y-99150000D01*
X119426000Y-99150000D01*
X119493039Y-99169685D01*
X119538794Y-99222489D01*
X119550000Y-99274000D01*
X119550000Y-108296869D01*
X119530315Y-108363908D01*
X119477511Y-108409663D01*
X119408353Y-108419607D01*
X119378787Y-108411529D01*
X118774403Y-108162666D01*
X118688038Y-108127104D01*
X118655872Y-108107705D01*
X118342343Y-107846430D01*
X117945117Y-107515408D01*
X117944426Y-107514377D01*
X117943297Y-107513862D01*
X117925023Y-107485427D01*
X117906218Y-107457369D01*
X117905975Y-107455787D01*
X117905523Y-107455084D01*
X117900500Y-107420149D01*
X117900500Y-107228037D01*
X117920185Y-107160998D01*
X117936819Y-107140356D01*
X117954410Y-107122765D01*
X118098752Y-106978423D01*
X118232026Y-106794986D01*
X118334963Y-106592960D01*
X118405030Y-106377318D01*
X118440500Y-106153370D01*
X118440500Y-105926630D01*
X118405030Y-105702682D01*
X118334963Y-105487040D01*
X118232026Y-105285014D01*
X118232024Y-105285011D01*
X118232023Y-105285009D01*
X118098757Y-105101583D01*
X118098753Y-105101578D01*
X117938421Y-104941246D01*
X117938416Y-104941242D01*
X117754990Y-104807976D01*
X117552962Y-104705038D01*
X117552961Y-104705037D01*
X117552960Y-104705037D01*
X117337318Y-104634970D01*
X117337316Y-104634969D01*
X117337315Y-104634969D01*
X117165283Y-104607722D01*
X117113370Y-104599500D01*
X116886630Y-104599500D01*
X116834716Y-104607722D01*
X116662685Y-104634969D01*
X116447037Y-104705038D01*
X116245009Y-104807976D01*
X116061583Y-104941242D01*
X116061578Y-104941246D01*
X115901246Y-105101578D01*
X115901242Y-105101583D01*
X115767976Y-105285009D01*
X115665038Y-105487037D01*
X115594969Y-105702685D01*
X115559500Y-105926630D01*
X115559500Y-106153369D01*
X115594969Y-106377314D01*
X115665038Y-106592962D01*
X115767976Y-106794990D01*
X115901242Y-106978416D01*
X115901246Y-106978421D01*
X116063181Y-107140356D01*
X116096666Y-107201679D01*
X116099500Y-107228037D01*
X116099500Y-107852372D01*
X116095169Y-107893200D01*
X116099500Y-107940842D01*
X116099500Y-107988693D01*
X116106230Y-108022532D01*
X116108102Y-108035488D01*
X116111227Y-108069849D01*
X116111227Y-108069851D01*
X116111227Y-108069854D01*
X116111228Y-108069855D01*
X116124772Y-108115745D01*
X116134106Y-108162666D01*
X116149814Y-108200589D01*
X116151671Y-108206880D01*
X116161440Y-108239977D01*
X116161443Y-108239985D01*
X116181062Y-108277361D01*
X116185829Y-108287538D01*
X116201987Y-108326547D01*
X116201990Y-108326552D01*
X116201992Y-108326555D01*
X116221158Y-108355240D01*
X116221159Y-108355240D01*
X116224801Y-108360691D01*
X116243883Y-108397044D01*
X116273953Y-108434251D01*
X116277078Y-108438927D01*
X116277078Y-108438928D01*
X116300535Y-108474035D01*
X116324929Y-108498429D01*
X116333689Y-108508166D01*
X116355380Y-108535005D01*
X116387815Y-108562034D01*
X116387814Y-108562034D01*
X116392139Y-108565638D01*
X116425965Y-108599464D01*
X116460104Y-108622275D01*
X116465143Y-108626474D01*
X116465144Y-108626475D01*
X117489662Y-109480241D01*
X117528561Y-109538280D01*
X117529907Y-109608137D01*
X117493271Y-109667632D01*
X117430286Y-109697875D01*
X117410279Y-109699500D01*
X115455143Y-109699500D01*
X115455117Y-109699502D01*
X115430012Y-109702413D01*
X115430008Y-109702415D01*
X115327235Y-109747793D01*
X115247794Y-109827234D01*
X115202415Y-109930006D01*
X115202415Y-109930008D01*
X115199500Y-109955131D01*
X115199500Y-112344856D01*
X115199502Y-112344882D01*
X115202413Y-112369987D01*
X115202415Y-112369991D01*
X115247793Y-112472764D01*
X115247794Y-112472765D01*
X115327235Y-112552206D01*
X115430009Y-112597585D01*
X115455135Y-112600500D01*
X115925500Y-112600499D01*
X115992539Y-112620183D01*
X116038294Y-112672987D01*
X116049500Y-112724499D01*
X116049500Y-113302785D01*
X116046100Y-113331624D01*
X116004798Y-113504339D01*
X115970061Y-113564962D01*
X115908064Y-113597182D01*
X115884198Y-113599500D01*
X115525143Y-113599500D01*
X115525117Y-113599502D01*
X115500012Y-113602413D01*
X115500008Y-113602415D01*
X115397235Y-113647793D01*
X115317794Y-113727234D01*
X115272415Y-113830006D01*
X115272415Y-113830008D01*
X115269500Y-113855131D01*
X115269500Y-115298933D01*
X115249815Y-115365972D01*
X115200113Y-115410259D01*
X110668729Y-117633203D01*
X110644567Y-117642080D01*
X109910599Y-117828018D01*
X109840779Y-117825399D01*
X109792467Y-117795496D01*
X109732765Y-117735794D01*
X109629992Y-117690415D01*
X109604865Y-117687500D01*
X106195143Y-117687500D01*
X106195117Y-117687502D01*
X106170012Y-117690413D01*
X106170008Y-117690415D01*
X106067235Y-117735793D01*
X105987794Y-117815234D01*
X105942415Y-117918006D01*
X105942415Y-117918008D01*
X105939500Y-117943131D01*
X105939500Y-120182856D01*
X105939502Y-120182882D01*
X105942413Y-120207987D01*
X105942415Y-120207991D01*
X105987793Y-120310764D01*
X105987794Y-120310765D01*
X106067235Y-120390206D01*
X106170009Y-120435585D01*
X106195135Y-120438500D01*
X106815500Y-120438499D01*
X106882539Y-120458183D01*
X106928294Y-120510987D01*
X106939500Y-120562499D01*
X106939500Y-121300500D01*
X106919815Y-121367539D01*
X106867011Y-121413294D01*
X106815501Y-121424500D01*
X106720143Y-121424500D01*
X106720118Y-121424502D01*
X106695011Y-121427414D01*
X106695008Y-121427415D01*
X106592235Y-121472793D01*
X106512794Y-121552234D01*
X106467415Y-121655006D01*
X106464967Y-121664007D01*
X106462688Y-121663387D01*
X106440567Y-121715531D01*
X106382837Y-121754888D01*
X106361682Y-121759733D01*
X105360216Y-121898329D01*
X105360215Y-121898329D01*
X105351753Y-121899500D01*
X105331007Y-121899500D01*
X105283577Y-121908933D01*
X105279949Y-121909436D01*
X105279940Y-121909438D01*
X105235625Y-121915571D01*
X105224085Y-121919573D01*
X105224086Y-121919574D01*
X105216018Y-121922372D01*
X105195672Y-121926420D01*
X105150978Y-121944931D01*
X105147532Y-121946127D01*
X105147529Y-121946127D01*
X105105267Y-121960787D01*
X105105257Y-121960792D01*
X105094715Y-121966971D01*
X105079480Y-121974547D01*
X105068189Y-121979224D01*
X105068188Y-121979225D01*
X105030983Y-122004082D01*
X105030984Y-122004083D01*
X105027957Y-122006104D01*
X104986222Y-122030572D01*
X104970709Y-122044357D01*
X104963618Y-122049096D01*
X104953459Y-122055885D01*
X104953453Y-122055889D01*
X104921818Y-122087524D01*
X104921817Y-122087523D01*
X104919221Y-122090118D01*
X104883083Y-122122238D01*
X104870565Y-122138775D01*
X104864525Y-122144816D01*
X104864525Y-122144817D01*
X104855893Y-122153449D01*
X104855882Y-122153463D01*
X104831031Y-122190653D01*
X104826807Y-122196589D01*
X104799811Y-122232259D01*
X104799809Y-122232261D01*
X104799808Y-122232264D01*
X104790753Y-122250935D01*
X104779225Y-122268189D01*
X104760718Y-122312865D01*
X104759127Y-122316147D01*
X104759120Y-122316164D01*
X104739598Y-122356421D01*
X104736514Y-122368244D01*
X104736513Y-122368243D01*
X104734357Y-122376506D01*
X104726420Y-122395672D01*
X104716983Y-122443104D01*
X104716060Y-122446646D01*
X104704770Y-122489932D01*
X104704768Y-122489947D01*
X104704050Y-122502131D01*
X104701885Y-122519013D01*
X104699500Y-122531007D01*
X104699500Y-122579388D01*
X104696655Y-122627687D01*
X104699500Y-122648244D01*
X104699500Y-123092384D01*
X104679815Y-123159423D01*
X104627011Y-123205178D01*
X104557853Y-123215122D01*
X104505424Y-123194685D01*
X104502668Y-123192797D01*
X104502665Y-123192794D01*
X104474109Y-123180185D01*
X104420734Y-123135101D01*
X104400206Y-123068315D01*
X104401459Y-123049102D01*
X104402646Y-123040852D01*
X104405500Y-123021000D01*
X104405500Y-115024000D01*
X104400710Y-114979446D01*
X104400000Y-114966193D01*
X104400000Y-112444659D01*
X104419685Y-112377620D01*
X104472489Y-112331865D01*
X104541647Y-112321921D01*
X104596069Y-112343754D01*
X105859971Y-113246541D01*
X105869024Y-113253666D01*
X105869190Y-113253810D01*
X105891004Y-113272872D01*
X105891656Y-113273247D01*
X105896632Y-113277552D01*
X105912537Y-113302260D01*
X105930673Y-113325378D01*
X105932056Y-113332582D01*
X105934451Y-113336301D01*
X105934457Y-113345077D01*
X105939500Y-113371326D01*
X105939500Y-114356856D01*
X105939502Y-114356882D01*
X105942413Y-114381987D01*
X105942415Y-114381991D01*
X105987793Y-114484764D01*
X105987794Y-114484765D01*
X106067235Y-114564206D01*
X106170009Y-114609585D01*
X106195135Y-114612500D01*
X109604864Y-114612499D01*
X109604879Y-114612497D01*
X109604882Y-114612497D01*
X109629987Y-114609586D01*
X109629988Y-114609585D01*
X109629991Y-114609585D01*
X109732765Y-114564206D01*
X109812206Y-114484765D01*
X109857585Y-114381991D01*
X109860500Y-114356865D01*
X109860499Y-112344785D01*
X110900001Y-112344785D01*
X110900002Y-112344808D01*
X110902908Y-112369869D01*
X110902909Y-112369873D01*
X110948211Y-112472474D01*
X110948214Y-112472479D01*
X111027520Y-112551785D01*
X111027525Y-112551788D01*
X111130123Y-112597089D01*
X111155206Y-112599999D01*
X112199999Y-112599999D01*
X112700000Y-112599999D01*
X113744786Y-112599999D01*
X113744808Y-112599997D01*
X113769869Y-112597091D01*
X113769873Y-112597090D01*
X113872474Y-112551788D01*
X113872479Y-112551785D01*
X113951785Y-112472479D01*
X113951788Y-112472474D01*
X113997089Y-112369877D01*
X113997089Y-112369875D01*
X113999999Y-112344794D01*
X114000000Y-112344791D01*
X114000000Y-111400000D01*
X112700000Y-111400000D01*
X112700000Y-112599999D01*
X112199999Y-112599999D01*
X112200000Y-112599998D01*
X112200000Y-111400000D01*
X110900001Y-111400000D01*
X110900001Y-112344785D01*
X109860499Y-112344785D01*
X109860499Y-112117136D01*
X109860497Y-112117117D01*
X109857586Y-112092012D01*
X109857585Y-112092010D01*
X109857585Y-112092009D01*
X109812206Y-111989235D01*
X109732765Y-111909794D01*
X109727941Y-111907664D01*
X109629992Y-111864415D01*
X109604868Y-111861500D01*
X109604865Y-111861500D01*
X106371024Y-111861500D01*
X106303985Y-111841815D01*
X106298972Y-111838418D01*
X105754541Y-111449539D01*
X105230749Y-111075402D01*
X105187638Y-111020418D01*
X105181097Y-110950855D01*
X105213203Y-110888799D01*
X105273763Y-110853952D01*
X105302822Y-110850499D01*
X105494856Y-110850499D01*
X105494864Y-110850499D01*
X105494879Y-110850497D01*
X105494882Y-110850497D01*
X105519987Y-110847586D01*
X105519988Y-110847585D01*
X105519991Y-110847585D01*
X105622765Y-110802206D01*
X105702206Y-110722765D01*
X105747585Y-110619991D01*
X105750500Y-110594865D01*
X105750499Y-108705136D01*
X105750151Y-108702135D01*
X105747586Y-108680012D01*
X105747585Y-108680010D01*
X105747585Y-108680009D01*
X105702206Y-108577235D01*
X105622765Y-108497794D01*
X105568956Y-108474035D01*
X105519992Y-108452415D01*
X105494868Y-108449500D01*
X104524000Y-108449500D01*
X104456961Y-108429815D01*
X104411206Y-108377011D01*
X104400000Y-108325500D01*
X104400000Y-107374499D01*
X104419685Y-107307460D01*
X104472489Y-107261705D01*
X104523998Y-107250499D01*
X105494864Y-107250499D01*
X105494879Y-107250497D01*
X105494882Y-107250497D01*
X105519987Y-107247586D01*
X105519988Y-107247585D01*
X105519991Y-107247585D01*
X105622765Y-107202206D01*
X105702206Y-107122765D01*
X105747585Y-107019991D01*
X105750500Y-106994865D01*
X105750499Y-105105136D01*
X105750151Y-105102135D01*
X105747586Y-105080012D01*
X105747585Y-105080010D01*
X105747585Y-105080009D01*
X105702206Y-104977235D01*
X105622765Y-104897794D01*
X105519992Y-104852415D01*
X105494868Y-104849500D01*
X104524000Y-104849500D01*
X104456961Y-104829815D01*
X104411206Y-104777011D01*
X104400000Y-104725500D01*
X104400000Y-103774499D01*
X104419685Y-103707460D01*
X104472489Y-103661705D01*
X104523998Y-103650499D01*
X105494864Y-103650499D01*
X105494879Y-103650497D01*
X105494882Y-103650497D01*
X105519987Y-103647586D01*
X105519988Y-103647585D01*
X105519991Y-103647585D01*
X105622765Y-103602206D01*
X105702206Y-103522765D01*
X105747585Y-103419991D01*
X105750500Y-103394865D01*
X105750499Y-101505136D01*
X105748941Y-101491700D01*
X105747586Y-101480012D01*
X105747585Y-101480010D01*
X105747585Y-101480009D01*
X105702206Y-101377235D01*
X105622765Y-101297794D01*
X105621678Y-101297314D01*
X105519992Y-101252415D01*
X105494868Y-101249500D01*
X104524000Y-101249500D01*
X104456961Y-101229815D01*
X104411206Y-101177011D01*
X104400000Y-101125500D01*
X104400000Y-100774499D01*
X104419685Y-100707460D01*
X104472489Y-100661705D01*
X104523998Y-100650499D01*
X104939864Y-100650499D01*
X104939879Y-100650497D01*
X104939882Y-100650497D01*
X104964987Y-100647586D01*
X104964987Y-100647585D01*
X104964991Y-100647585D01*
X105029914Y-100618918D01*
X105099190Y-100609847D01*
X105130085Y-100618919D01*
X105195004Y-100647583D01*
X105195009Y-100647585D01*
X105220135Y-100650500D01*
X106209864Y-100650499D01*
X106209879Y-100650497D01*
X106209882Y-100650497D01*
X106234987Y-100647586D01*
X106234987Y-100647585D01*
X106234991Y-100647585D01*
X106299914Y-100618918D01*
X106369190Y-100609847D01*
X106400085Y-100618919D01*
X106465004Y-100647583D01*
X106465009Y-100647585D01*
X106490135Y-100650500D01*
X107479864Y-100650499D01*
X107479879Y-100650497D01*
X107479882Y-100650497D01*
X107504987Y-100647586D01*
X107504988Y-100647585D01*
X107504991Y-100647585D01*
X107607765Y-100602206D01*
X107687206Y-100522765D01*
X107732585Y-100419991D01*
X107735500Y-100394865D01*
X107735499Y-99273999D01*
X107755184Y-99206961D01*
X107807987Y-99161206D01*
X107859499Y-99150000D01*
X113875500Y-99150000D01*
X113942539Y-99169685D01*
G37*
%TD.AperFunction*%
%TD*%
%TA.AperFunction,Conductor*%
%TO.N,PGND*%
G36*
X84332751Y-120504905D02*
G01*
X84372928Y-120562067D01*
X84379500Y-120601901D01*
X84379500Y-121154856D01*
X84379502Y-121154882D01*
X84382413Y-121179987D01*
X84382415Y-121179991D01*
X84427793Y-121282764D01*
X84427794Y-121282765D01*
X84507235Y-121362206D01*
X84610009Y-121407585D01*
X84635135Y-121410500D01*
X85925500Y-121410499D01*
X85992539Y-121430184D01*
X86038294Y-121482987D01*
X86049500Y-121534499D01*
X86049500Y-123666000D01*
X86029815Y-123733039D01*
X85977011Y-123778794D01*
X85925500Y-123790000D01*
X85560000Y-123790000D01*
X85560000Y-127999999D01*
X85984786Y-127999999D01*
X85984808Y-127999997D01*
X86009869Y-127997091D01*
X86009873Y-127997090D01*
X86112474Y-127951788D01*
X86112475Y-127951788D01*
X86169822Y-127894441D01*
X86193639Y-127881435D01*
X86215552Y-127865434D01*
X86223849Y-127864939D01*
X86231145Y-127860956D01*
X86258209Y-127862891D01*
X86285298Y-127861277D01*
X86295247Y-127865540D01*
X86300837Y-127865940D01*
X86318218Y-127874003D01*
X86322105Y-127876185D01*
X86357161Y-127899332D01*
X86372323Y-127904385D01*
X86382622Y-127910169D01*
X86382888Y-127910442D01*
X86383901Y-127910897D01*
X86387515Y-127912984D01*
X86423740Y-127922690D01*
X86483401Y-127959055D01*
X86513930Y-128021902D01*
X86505635Y-128091277D01*
X86461150Y-128145155D01*
X86441732Y-128155900D01*
X86402525Y-128173211D01*
X86402520Y-128173214D01*
X86323214Y-128252520D01*
X86323211Y-128252525D01*
X86277910Y-128355122D01*
X86277910Y-128355124D01*
X86275000Y-128380205D01*
X86275000Y-129050000D01*
X87999999Y-129050000D01*
X87999999Y-128618985D01*
X88019684Y-128551946D01*
X88072488Y-128506191D01*
X88141646Y-128496247D01*
X88163209Y-128501347D01*
X89013920Y-128784917D01*
X89018250Y-128787255D01*
X89021010Y-128787524D01*
X89051542Y-128805227D01*
X89085179Y-128831783D01*
X89152336Y-128884801D01*
X89192756Y-128941792D01*
X89199500Y-128982127D01*
X89199500Y-130219856D01*
X89199502Y-130219882D01*
X89202413Y-130244987D01*
X89202415Y-130244991D01*
X89247793Y-130347764D01*
X89247794Y-130347765D01*
X89327235Y-130427206D01*
X89430009Y-130472585D01*
X89455135Y-130475500D01*
X90669864Y-130475499D01*
X90669879Y-130475497D01*
X90669882Y-130475497D01*
X90694987Y-130472586D01*
X90694988Y-130472585D01*
X90694991Y-130472585D01*
X90797765Y-130427206D01*
X90877206Y-130347765D01*
X90922585Y-130244991D01*
X90925500Y-130219865D01*
X90925499Y-129877647D01*
X90927201Y-129871849D01*
X90926055Y-129865916D01*
X90936929Y-129838718D01*
X90945183Y-129810609D01*
X90949751Y-129806650D01*
X90951995Y-129801039D01*
X90975847Y-129784037D01*
X90997987Y-129764854D01*
X91005230Y-129763094D01*
X91008891Y-129760486D01*
X91043541Y-129753791D01*
X91144545Y-129748935D01*
X91212453Y-129765377D01*
X91260690Y-129815923D01*
X91274500Y-129872792D01*
X91274500Y-130119855D01*
X91274502Y-130119881D01*
X91277413Y-130144986D01*
X91277415Y-130144990D01*
X91322793Y-130247763D01*
X91322794Y-130247764D01*
X91402235Y-130327205D01*
X91505009Y-130372584D01*
X91530135Y-130375499D01*
X92236335Y-130375498D01*
X92303374Y-130395182D01*
X92343722Y-130437498D01*
X92419477Y-130568711D01*
X92419481Y-130568716D01*
X92478583Y-130627818D01*
X92512068Y-130689141D01*
X92507084Y-130758833D01*
X92465212Y-130814766D01*
X92399748Y-130839183D01*
X92390902Y-130839499D01*
X77590450Y-130839499D01*
X77523411Y-130819814D01*
X77477656Y-130767010D01*
X77466450Y-130715499D01*
X77466450Y-130219785D01*
X86275001Y-130219785D01*
X86275002Y-130219808D01*
X86277908Y-130244869D01*
X86277909Y-130244873D01*
X86323211Y-130347474D01*
X86323214Y-130347479D01*
X86402520Y-130426785D01*
X86402525Y-130426788D01*
X86505123Y-130472089D01*
X86530206Y-130474999D01*
X86887499Y-130474999D01*
X87387500Y-130474999D01*
X87744786Y-130474999D01*
X87744808Y-130474997D01*
X87769869Y-130472091D01*
X87769873Y-130472090D01*
X87872474Y-130426788D01*
X87872479Y-130426785D01*
X87951785Y-130347479D01*
X87951788Y-130347474D01*
X87997089Y-130244877D01*
X87997089Y-130244875D01*
X87999999Y-130219794D01*
X88000000Y-130219791D01*
X88000000Y-129550000D01*
X87387500Y-129550000D01*
X87387500Y-130474999D01*
X86887499Y-130474999D01*
X86887500Y-130474998D01*
X86887500Y-129550000D01*
X86275001Y-129550000D01*
X86275001Y-130219785D01*
X77466450Y-130219785D01*
X77466450Y-127744785D01*
X84380001Y-127744785D01*
X84380002Y-127744808D01*
X84382908Y-127769869D01*
X84382909Y-127769873D01*
X84428211Y-127872474D01*
X84428214Y-127872479D01*
X84507520Y-127951785D01*
X84507525Y-127951788D01*
X84610123Y-127997089D01*
X84635206Y-127999999D01*
X85059999Y-127999999D01*
X85060000Y-127999998D01*
X85060000Y-126145000D01*
X84380001Y-126145000D01*
X84380001Y-127744785D01*
X77466450Y-127744785D01*
X77466450Y-126784570D01*
X77486135Y-126717531D01*
X77538939Y-126671776D01*
X77608097Y-126661832D01*
X77640913Y-126674629D01*
X77642010Y-126672146D01*
X77755123Y-126722089D01*
X77780206Y-126724999D01*
X78899999Y-126724999D01*
X79400000Y-126724999D01*
X80519786Y-126724999D01*
X80519808Y-126724997D01*
X80544869Y-126722091D01*
X80544873Y-126722090D01*
X80647474Y-126676788D01*
X80647479Y-126676785D01*
X80726785Y-126597479D01*
X80726788Y-126597474D01*
X80772089Y-126494877D01*
X80772089Y-126494875D01*
X80774999Y-126469794D01*
X80775000Y-126469791D01*
X80775000Y-126112500D01*
X79400000Y-126112500D01*
X79400000Y-126724999D01*
X78899999Y-126724999D01*
X78900000Y-126724998D01*
X78900000Y-125612500D01*
X79400000Y-125612500D01*
X80774999Y-125612500D01*
X80774999Y-125255214D01*
X80774997Y-125255191D01*
X80772091Y-125230130D01*
X80772090Y-125230126D01*
X80726788Y-125127525D01*
X80726785Y-125127520D01*
X80647479Y-125048214D01*
X80647474Y-125048211D01*
X80544876Y-125002910D01*
X80519794Y-125000000D01*
X79400000Y-125000000D01*
X79400000Y-125612500D01*
X78900000Y-125612500D01*
X78900000Y-125000000D01*
X77780214Y-125000000D01*
X77780191Y-125000002D01*
X77755130Y-125002908D01*
X77755126Y-125002909D01*
X77642010Y-125052854D01*
X77640431Y-125049279D01*
X77594072Y-125064376D01*
X77526486Y-125046658D01*
X77479209Y-124995213D01*
X77466450Y-124940429D01*
X77466450Y-124045205D01*
X84380000Y-124045205D01*
X84380000Y-125645000D01*
X85060000Y-125645000D01*
X85060000Y-123790000D01*
X84635214Y-123790000D01*
X84635191Y-123790002D01*
X84610130Y-123792908D01*
X84610126Y-123792909D01*
X84507525Y-123838211D01*
X84507520Y-123838214D01*
X84428214Y-123917520D01*
X84428211Y-123917525D01*
X84382910Y-124020122D01*
X84382910Y-124020124D01*
X84380000Y-124045205D01*
X77466450Y-124045205D01*
X77466450Y-123860185D01*
X77486135Y-123793146D01*
X77538939Y-123747391D01*
X77608097Y-123737447D01*
X77640597Y-123750118D01*
X77641725Y-123747565D01*
X77652234Y-123752205D01*
X77652235Y-123752206D01*
X77755009Y-123797585D01*
X77780135Y-123800500D01*
X80519864Y-123800499D01*
X80519879Y-123800497D01*
X80519882Y-123800497D01*
X80544987Y-123797586D01*
X80544988Y-123797585D01*
X80544991Y-123797585D01*
X80647765Y-123752206D01*
X80727206Y-123672765D01*
X80772585Y-123569991D01*
X80775500Y-123544865D01*
X80775499Y-122330136D01*
X80775351Y-122328862D01*
X80775406Y-122328542D01*
X80775292Y-122326561D01*
X80775751Y-122326534D01*
X80778825Y-122308632D01*
X80777371Y-122288160D01*
X80784619Y-122274899D01*
X80787178Y-122260003D01*
X80801037Y-122244863D01*
X80810883Y-122226852D01*
X80831949Y-122211096D01*
X80834357Y-122208467D01*
X80839124Y-122205727D01*
X81054934Y-122088012D01*
X81058075Y-122086358D01*
X84199363Y-120491336D01*
X84268047Y-120478537D01*
X84332751Y-120504905D01*
G37*
%TD.AperFunction*%
%TA.AperFunction,Conductor*%
G36*
X97759181Y-114919685D02*
G01*
X97804936Y-114972489D01*
X97814880Y-115041647D01*
X97805576Y-115074088D01*
X97802910Y-115080125D01*
X97800000Y-115105205D01*
X97800000Y-116150000D01*
X100199999Y-116150000D01*
X100199999Y-115105214D01*
X100199997Y-115105191D01*
X100197091Y-115080130D01*
X100197089Y-115080123D01*
X100194422Y-115074082D01*
X100185353Y-115004804D01*
X100215178Y-114941620D01*
X100274429Y-114904591D01*
X100307858Y-114900000D01*
X103976000Y-114900000D01*
X104043039Y-114919685D01*
X104088794Y-114972489D01*
X104100000Y-115024000D01*
X104100000Y-123021000D01*
X104080315Y-123088039D01*
X104027511Y-123133794D01*
X103976000Y-123145000D01*
X103929900Y-123145000D01*
X103929900Y-123621000D01*
X103910215Y-123688039D01*
X103857411Y-123733794D01*
X103805900Y-123745000D01*
X103679900Y-123745000D01*
X103679900Y-123871000D01*
X103660215Y-123938039D01*
X103607411Y-123983794D01*
X103555900Y-123995000D01*
X102720192Y-123995000D01*
X102680257Y-124016806D01*
X102610565Y-124011822D01*
X102554632Y-123969950D01*
X102530215Y-123904486D01*
X102529899Y-123895640D01*
X102529899Y-123855214D01*
X102529897Y-123855191D01*
X102526991Y-123830130D01*
X102526990Y-123830126D01*
X102481688Y-123727525D01*
X102481685Y-123727520D01*
X102402379Y-123648214D01*
X102402374Y-123648211D01*
X102299776Y-123602910D01*
X102274694Y-123600000D01*
X101229900Y-123600000D01*
X101229900Y-125400000D01*
X102529898Y-125400000D01*
X102546912Y-125382986D01*
X102608235Y-125349500D01*
X102677926Y-125354484D01*
X102733860Y-125396355D01*
X102734997Y-125397898D01*
X102742717Y-125408550D01*
X102777694Y-125487765D01*
X102857135Y-125567206D01*
X102857971Y-125567575D01*
X102864970Y-125577232D01*
X102873511Y-125601260D01*
X102885733Y-125623642D01*
X102885018Y-125633630D01*
X102888373Y-125643066D01*
X102882568Y-125667896D01*
X102880749Y-125693334D01*
X102874261Y-125703428D01*
X102872468Y-125711101D01*
X102864143Y-125719172D01*
X102852248Y-125737681D01*
X102777694Y-125812234D01*
X102777692Y-125812237D01*
X102748027Y-125879420D01*
X102702941Y-125932796D01*
X102636154Y-125953322D01*
X102568872Y-125934483D01*
X102546913Y-125917013D01*
X102529900Y-125900000D01*
X101229900Y-125900000D01*
X101229900Y-127699999D01*
X102274686Y-127699999D01*
X102274708Y-127699997D01*
X102299769Y-127697091D01*
X102299773Y-127697090D01*
X102402374Y-127651788D01*
X102402379Y-127651785D01*
X102481685Y-127572479D01*
X102481687Y-127572476D01*
X102491964Y-127549201D01*
X102537048Y-127495824D01*
X102603834Y-127475294D01*
X102671117Y-127494130D01*
X102717535Y-127546352D01*
X102729400Y-127599284D01*
X102729400Y-127899856D01*
X102729402Y-127899882D01*
X102732313Y-127924987D01*
X102732315Y-127924991D01*
X102777693Y-128027764D01*
X102777694Y-128027765D01*
X102857135Y-128107206D01*
X102959909Y-128152585D01*
X102985035Y-128155500D01*
X103079267Y-128155499D01*
X103146304Y-128175183D01*
X103192060Y-128227986D01*
X103202004Y-128297145D01*
X103196470Y-128319987D01*
X102974350Y-128962968D01*
X102933854Y-129019906D01*
X102888703Y-129042397D01*
X101555273Y-129393300D01*
X101485431Y-129391325D01*
X101436035Y-129361064D01*
X101397765Y-129322794D01*
X101294992Y-129277415D01*
X101269865Y-129274500D01*
X100380143Y-129274500D01*
X100380117Y-129274502D01*
X100355012Y-129277413D01*
X100355008Y-129277415D01*
X100252235Y-129322793D01*
X100172794Y-129402234D01*
X100127415Y-129505006D01*
X100127415Y-129505008D01*
X100124500Y-129530131D01*
X100124500Y-130569856D01*
X100124502Y-130569882D01*
X100127413Y-130594987D01*
X100127415Y-130594991D01*
X100158509Y-130665413D01*
X100162947Y-130699310D01*
X100167813Y-130733146D01*
X100167475Y-130733885D01*
X100167581Y-130734691D01*
X100152996Y-130765589D01*
X100138788Y-130796702D01*
X100138103Y-130797141D01*
X100137757Y-130797876D01*
X100108779Y-130815986D01*
X100080010Y-130834476D01*
X100078954Y-130834627D01*
X100078508Y-130834907D01*
X100045075Y-130839499D01*
X99954925Y-130839499D01*
X99887886Y-130819814D01*
X99842131Y-130767010D01*
X99832187Y-130697852D01*
X99841491Y-130665412D01*
X99858091Y-130627818D01*
X99872585Y-130594991D01*
X99875500Y-130569865D01*
X99875499Y-129530136D01*
X99875379Y-129529103D01*
X99872586Y-129505012D01*
X99872585Y-129505010D01*
X99872585Y-129505009D01*
X99827206Y-129402235D01*
X99747765Y-129322794D01*
X99715970Y-129308755D01*
X99644992Y-129277415D01*
X99619865Y-129274500D01*
X98730143Y-129274500D01*
X98730117Y-129274502D01*
X98705014Y-129277413D01*
X98705010Y-129277414D01*
X98654568Y-129299686D01*
X98585290Y-129308755D01*
X98570319Y-129305450D01*
X97919402Y-129118881D01*
X97865887Y-129087362D01*
X97586819Y-128808294D01*
X97553334Y-128746971D01*
X97550500Y-128720613D01*
X97550500Y-128279499D01*
X97570185Y-128212460D01*
X97622989Y-128166705D01*
X97674495Y-128155499D01*
X98974964Y-128155499D01*
X98974979Y-128155497D01*
X98974982Y-128155497D01*
X99000087Y-128152586D01*
X99000088Y-128152585D01*
X99000091Y-128152585D01*
X99102865Y-128107206D01*
X99182306Y-128027765D01*
X99227685Y-127924991D01*
X99230600Y-127899865D01*
X99230599Y-127599735D01*
X99250283Y-127532698D01*
X99303087Y-127486943D01*
X99372246Y-127476999D01*
X99435801Y-127506024D01*
X99468034Y-127549651D01*
X99478112Y-127572476D01*
X99478114Y-127572479D01*
X99557420Y-127651785D01*
X99557425Y-127651788D01*
X99660023Y-127697089D01*
X99685106Y-127699999D01*
X100729899Y-127699999D01*
X100729900Y-127699998D01*
X100729900Y-125900000D01*
X99429900Y-125900000D01*
X99413023Y-125916877D01*
X99351700Y-125950361D01*
X99282008Y-125945376D01*
X99226075Y-125903504D01*
X99224950Y-125901977D01*
X99217227Y-125891324D01*
X99182306Y-125812235D01*
X99102865Y-125732794D01*
X99102031Y-125732426D01*
X99095040Y-125722782D01*
X99086492Y-125698746D01*
X99074267Y-125676358D01*
X99074980Y-125666378D01*
X99071628Y-125656951D01*
X99077431Y-125632112D01*
X99079251Y-125606666D01*
X99085732Y-125596580D01*
X99087524Y-125588914D01*
X99095848Y-125580840D01*
X99107752Y-125562319D01*
X99117537Y-125552534D01*
X99182306Y-125487765D01*
X99211910Y-125420717D01*
X99256994Y-125367343D01*
X99323780Y-125346815D01*
X99391062Y-125365653D01*
X99413024Y-125383124D01*
X99429900Y-125400000D01*
X100729900Y-125400000D01*
X100729900Y-123600000D01*
X99685114Y-123600000D01*
X99685091Y-123600002D01*
X99660030Y-123602908D01*
X99660026Y-123602909D01*
X99557425Y-123648211D01*
X99557420Y-123648214D01*
X99478114Y-123727520D01*
X99478110Y-123727526D01*
X99468033Y-123750349D01*
X99422947Y-123803725D01*
X99356161Y-123824252D01*
X99288878Y-123805413D01*
X99242462Y-123753190D01*
X99230599Y-123700262D01*
X99230599Y-123400205D01*
X102729900Y-123400205D01*
X102729900Y-123495000D01*
X103429900Y-123495000D01*
X103429900Y-123145000D01*
X102985114Y-123145000D01*
X102985091Y-123145002D01*
X102960030Y-123147908D01*
X102960026Y-123147909D01*
X102857425Y-123193211D01*
X102857420Y-123193214D01*
X102778114Y-123272520D01*
X102778111Y-123272525D01*
X102732810Y-123375122D01*
X102732810Y-123375124D01*
X102729900Y-123400205D01*
X99230599Y-123400205D01*
X99230599Y-123400143D01*
X99230599Y-123400136D01*
X99230597Y-123400117D01*
X99227686Y-123375012D01*
X99227685Y-123375010D01*
X99227685Y-123375009D01*
X99182306Y-123272235D01*
X99102865Y-123192794D01*
X99028947Y-123160156D01*
X99000092Y-123147415D01*
X98974968Y-123144500D01*
X98974965Y-123144500D01*
X98525900Y-123144500D01*
X98511213Y-123140187D01*
X98495917Y-123140821D01*
X98478368Y-123130543D01*
X98458861Y-123124815D01*
X98447930Y-123112715D01*
X98435627Y-123105510D01*
X98415333Y-123076634D01*
X98378101Y-123003298D01*
X98365096Y-122957463D01*
X98363802Y-122941937D01*
X98365305Y-122934612D01*
X98365305Y-122934610D01*
X98365306Y-122934605D01*
X98377851Y-122873494D01*
X98379987Y-122869638D01*
X98380518Y-122868717D01*
X98380520Y-122868716D01*
X98459577Y-122731784D01*
X98500500Y-122579057D01*
X98500500Y-122420943D01*
X98459577Y-122268216D01*
X98384850Y-122138784D01*
X98383531Y-122136499D01*
X98367058Y-122068598D01*
X98389911Y-122002571D01*
X98444832Y-121959381D01*
X98490918Y-121950499D01*
X99944856Y-121950499D01*
X99944864Y-121950499D01*
X99944879Y-121950497D01*
X99944882Y-121950497D01*
X99969987Y-121947586D01*
X99969988Y-121947585D01*
X99969991Y-121947585D01*
X100072765Y-121902206D01*
X100152206Y-121822765D01*
X100197585Y-121719991D01*
X100200500Y-121694865D01*
X100200499Y-119105136D01*
X100200497Y-119105117D01*
X100197586Y-119080012D01*
X100197585Y-119080010D01*
X100197585Y-119080009D01*
X100152206Y-118977235D01*
X100072765Y-118897794D01*
X100035437Y-118881312D01*
X99969992Y-118852415D01*
X99944865Y-118849500D01*
X98055143Y-118849500D01*
X98055117Y-118849502D01*
X98030012Y-118852413D01*
X98030008Y-118852415D01*
X97927235Y-118897793D01*
X97847794Y-118977234D01*
X97802415Y-119080006D01*
X97802415Y-119080008D01*
X97799500Y-119105131D01*
X97799500Y-120233175D01*
X97779815Y-120300214D01*
X97739297Y-120339504D01*
X96691908Y-120967936D01*
X96691909Y-120967937D01*
X96684040Y-120972657D01*
X96668189Y-120979225D01*
X96625000Y-121008082D01*
X96622401Y-121009642D01*
X96580433Y-121034824D01*
X96574512Y-121040195D01*
X96574511Y-121040194D01*
X96567717Y-121046357D01*
X96553458Y-121055886D01*
X96516740Y-121092602D01*
X96514500Y-121094635D01*
X96478239Y-121127531D01*
X96475504Y-121131222D01*
X96473479Y-121133954D01*
X96468015Y-121141327D01*
X96455886Y-121153458D01*
X96427037Y-121196630D01*
X96425229Y-121199072D01*
X96425229Y-121199073D01*
X96396091Y-121238400D01*
X96396088Y-121238405D01*
X96392674Y-121245628D01*
X96392675Y-121245629D01*
X96388757Y-121253922D01*
X96379225Y-121268189D01*
X96359348Y-121316173D01*
X96358058Y-121318905D01*
X96337149Y-121363168D01*
X96337146Y-121363177D01*
X96335211Y-121370919D01*
X96329479Y-121388284D01*
X96326420Y-121395669D01*
X96316868Y-121443682D01*
X96316869Y-121443683D01*
X96316282Y-121446634D01*
X96303682Y-121497038D01*
X96302847Y-121514176D01*
X96299500Y-121531007D01*
X96299500Y-121582961D01*
X96296974Y-121634861D01*
X96299500Y-121651835D01*
X96299500Y-125298894D01*
X96279815Y-125365933D01*
X96227011Y-125411688D01*
X96157853Y-125421632D01*
X96148930Y-125420014D01*
X95347929Y-125244296D01*
X95286664Y-125210703D01*
X95253287Y-125149322D01*
X95250499Y-125123176D01*
X95250499Y-124393143D01*
X95250499Y-124393136D01*
X95249691Y-124386169D01*
X95247586Y-124368012D01*
X95247585Y-124368010D01*
X95247585Y-124368009D01*
X95202206Y-124265235D01*
X95122765Y-124185794D01*
X95086979Y-124169993D01*
X95019992Y-124140415D01*
X94994865Y-124137500D01*
X91585143Y-124137500D01*
X91585117Y-124137502D01*
X91560012Y-124140413D01*
X91560008Y-124140415D01*
X91457235Y-124185793D01*
X91377794Y-124265234D01*
X91332415Y-124368006D01*
X91332415Y-124368008D01*
X91329500Y-124393131D01*
X91329500Y-126632856D01*
X91329502Y-126632882D01*
X91332413Y-126657987D01*
X91332415Y-126657991D01*
X91377793Y-126760764D01*
X91377794Y-126760765D01*
X91457235Y-126840206D01*
X91560009Y-126885585D01*
X91585135Y-126888500D01*
X94994864Y-126888499D01*
X94994879Y-126888497D01*
X94994882Y-126888497D01*
X95019987Y-126885586D01*
X95019988Y-126885585D01*
X95019991Y-126885585D01*
X95122765Y-126840206D01*
X95202206Y-126760765D01*
X95207187Y-126749483D01*
X95252270Y-126696108D01*
X95319056Y-126675579D01*
X95347186Y-126678448D01*
X96352071Y-126898893D01*
X96413335Y-126932486D01*
X96446712Y-126993867D01*
X96449500Y-127020013D01*
X96449500Y-129072476D01*
X96464164Y-129127205D01*
X96487014Y-129212480D01*
X96487016Y-129212485D01*
X96559490Y-129338015D01*
X97207374Y-129985899D01*
X97254397Y-130034582D01*
X97258554Y-130037079D01*
X97261985Y-130040510D01*
X97319698Y-130073830D01*
X97321482Y-130074881D01*
X97378651Y-130109223D01*
X97378659Y-130109225D01*
X97381679Y-130110538D01*
X97381678Y-130110538D01*
X97384025Y-130111558D01*
X97384051Y-130111569D01*
X97384132Y-130111604D01*
X97384470Y-130111722D01*
X97387509Y-130112981D01*
X97387515Y-130112984D01*
X97436755Y-130126177D01*
X97451855Y-130130224D01*
X97453927Y-130130799D01*
X97712026Y-130204776D01*
X98384667Y-130397570D01*
X98443686Y-130434964D01*
X98471494Y-130489631D01*
X98474500Y-130503035D01*
X98474501Y-130569864D01*
X98477415Y-130594991D01*
X98513413Y-130676519D01*
X98516069Y-130688360D01*
X98514557Y-130711600D01*
X98517581Y-130734691D01*
X98512332Y-130745811D01*
X98511534Y-130758082D01*
X98497697Y-130776816D01*
X98487757Y-130797876D01*
X98477330Y-130804392D01*
X98470024Y-130814285D01*
X98448256Y-130822563D01*
X98428508Y-130834907D01*
X98408622Y-130837638D01*
X98404719Y-130839123D01*
X98401994Y-130838548D01*
X98395075Y-130839499D01*
X93409098Y-130839499D01*
X93342059Y-130819814D01*
X93296304Y-130767010D01*
X93286360Y-130697852D01*
X93315385Y-130634296D01*
X93321417Y-130627818D01*
X93380520Y-130568715D01*
X93459577Y-130431783D01*
X93500500Y-130279056D01*
X93500500Y-130120942D01*
X93500190Y-130119784D01*
X94200001Y-130119784D01*
X94200002Y-130119807D01*
X94202908Y-130144868D01*
X94202909Y-130144872D01*
X94248211Y-130247473D01*
X94248214Y-130247478D01*
X94327520Y-130326784D01*
X94327525Y-130326787D01*
X94430123Y-130372088D01*
X94455206Y-130374998D01*
X94812499Y-130374998D01*
X95312500Y-130374998D01*
X95669786Y-130374998D01*
X95669808Y-130374996D01*
X95694869Y-130372090D01*
X95694873Y-130372089D01*
X95797474Y-130326787D01*
X95797479Y-130326784D01*
X95876785Y-130247478D01*
X95876788Y-130247473D01*
X95922089Y-130144876D01*
X95922089Y-130144874D01*
X95924999Y-130119793D01*
X95925000Y-130119790D01*
X95925000Y-129449999D01*
X95312500Y-129449999D01*
X95312500Y-130374998D01*
X94812499Y-130374998D01*
X94812500Y-130374997D01*
X94812500Y-129449999D01*
X94200001Y-129449999D01*
X94200001Y-130119784D01*
X93500190Y-130119784D01*
X93459577Y-129968215D01*
X93403941Y-129871849D01*
X93380524Y-129831289D01*
X93380518Y-129831281D01*
X93280175Y-129730938D01*
X93271394Y-129721175D01*
X93268084Y-129717077D01*
X93268075Y-129717059D01*
X93268011Y-129716987D01*
X93266209Y-129714756D01*
X93265530Y-129713123D01*
X93265153Y-129712742D01*
X93263513Y-129710318D01*
X93263621Y-129710244D01*
X93260553Y-129705913D01*
X93260448Y-129705992D01*
X93255612Y-129699465D01*
X93219055Y-129661658D01*
X93215508Y-129657830D01*
X93102187Y-129530143D01*
X93058525Y-129480946D01*
X93058525Y-129480945D01*
X93031757Y-129450785D01*
X93001979Y-129387578D01*
X93000499Y-129368475D01*
X93000499Y-128280204D01*
X94200000Y-128280204D01*
X94200000Y-128949999D01*
X94812500Y-128949999D01*
X95312500Y-128949999D01*
X95924999Y-128949999D01*
X95924999Y-128280213D01*
X95924997Y-128280190D01*
X95922091Y-128255129D01*
X95922090Y-128255125D01*
X95876788Y-128152524D01*
X95876785Y-128152519D01*
X95797479Y-128073213D01*
X95797474Y-128073210D01*
X95694876Y-128027909D01*
X95669794Y-128024999D01*
X95312500Y-128024999D01*
X95312500Y-128949999D01*
X94812500Y-128949999D01*
X94812500Y-128024999D01*
X94455214Y-128024999D01*
X94455191Y-128025001D01*
X94430130Y-128027907D01*
X94430126Y-128027908D01*
X94327525Y-128073210D01*
X94327520Y-128073213D01*
X94248214Y-128152519D01*
X94248211Y-128152524D01*
X94202910Y-128255121D01*
X94202910Y-128255123D01*
X94200000Y-128280204D01*
X93000499Y-128280204D01*
X93000499Y-128280142D01*
X93000499Y-128280135D01*
X92999639Y-128272717D01*
X92997586Y-128255011D01*
X92997585Y-128255009D01*
X92997585Y-128255008D01*
X92952206Y-128152234D01*
X92872765Y-128072793D01*
X92865746Y-128069694D01*
X92769992Y-128027414D01*
X92744865Y-128024499D01*
X91530143Y-128024499D01*
X91530117Y-128024501D01*
X91505012Y-128027412D01*
X91505008Y-128027414D01*
X91402235Y-128072792D01*
X91322794Y-128152233D01*
X91277415Y-128255005D01*
X91277415Y-128255007D01*
X91274500Y-128280130D01*
X91274500Y-128622349D01*
X91272797Y-128628146D01*
X91273944Y-128634081D01*
X91263067Y-128661284D01*
X91254815Y-128689388D01*
X91250248Y-128693345D01*
X91248004Y-128698958D01*
X91224145Y-128715963D01*
X91202011Y-128735143D01*
X91194768Y-128736901D01*
X91191108Y-128739511D01*
X91156455Y-128746206D01*
X91055454Y-128751062D01*
X90987546Y-128734620D01*
X90939309Y-128684074D01*
X90925499Y-128627205D01*
X90925499Y-128380143D01*
X90925499Y-128380136D01*
X90925304Y-128378451D01*
X90922586Y-128355012D01*
X90922585Y-128355010D01*
X90922585Y-128355009D01*
X90877206Y-128252235D01*
X90797765Y-128172794D01*
X90783975Y-128166705D01*
X90694992Y-128127415D01*
X90669868Y-128124500D01*
X90669865Y-128124500D01*
X90009163Y-128124500D01*
X89942124Y-128104815D01*
X89932327Y-128097826D01*
X89688103Y-127905018D01*
X89679463Y-127898197D01*
X89663801Y-127880534D01*
X89622798Y-127853461D01*
X89618668Y-127850200D01*
X89618667Y-127850199D01*
X89584237Y-127823017D01*
X89584228Y-127823012D01*
X89572644Y-127818025D01*
X89553361Y-127807614D01*
X89542843Y-127800670D01*
X89542837Y-127800667D01*
X89520844Y-127793336D01*
X89496217Y-127785127D01*
X89451092Y-127765703D01*
X89427733Y-127762299D01*
X89417291Y-127758818D01*
X87235288Y-127031483D01*
X87177913Y-126991609D01*
X87151205Y-126927045D01*
X87150500Y-126913846D01*
X87150500Y-120928862D01*
X87150954Y-120918264D01*
X87154679Y-120874836D01*
X87152421Y-120862156D01*
X87150500Y-120840416D01*
X87150500Y-120827526D01*
X87150500Y-120827525D01*
X87137839Y-120780275D01*
X87129266Y-120732133D01*
X87119155Y-120710545D01*
X87112984Y-120687515D01*
X87091184Y-120649757D01*
X87086280Y-120640357D01*
X87067786Y-120600870D01*
X87067784Y-120600867D01*
X87059485Y-120591010D01*
X87052427Y-120582628D01*
X87040509Y-120561985D01*
X87005926Y-120527402D01*
X86974424Y-120489989D01*
X86963852Y-120482613D01*
X86963852Y-120482612D01*
X86954868Y-120476344D01*
X86938015Y-120459491D01*
X86895662Y-120435038D01*
X86891308Y-120432000D01*
X86725816Y-120316541D01*
X86682098Y-120262038D01*
X86674786Y-120192552D01*
X86706203Y-120130144D01*
X86766372Y-120094628D01*
X86803361Y-120091021D01*
X86888020Y-120095530D01*
X86898433Y-120096560D01*
X86898811Y-120096577D01*
X86898818Y-120096579D01*
X86964906Y-120099625D01*
X86965504Y-120099656D01*
X87031991Y-120103197D01*
X87042491Y-120103202D01*
X91211212Y-120295401D01*
X91277273Y-120318152D01*
X91320547Y-120373007D01*
X91329500Y-120419269D01*
X91329500Y-120806856D01*
X91329502Y-120806882D01*
X91332413Y-120831987D01*
X91332415Y-120831991D01*
X91377793Y-120934764D01*
X91377794Y-120934765D01*
X91457235Y-121014206D01*
X91560009Y-121059585D01*
X91585135Y-121062500D01*
X94994864Y-121062499D01*
X94994879Y-121062497D01*
X94994882Y-121062497D01*
X95019987Y-121059586D01*
X95019988Y-121059585D01*
X95019991Y-121059585D01*
X95122765Y-121014206D01*
X95202206Y-120934765D01*
X95247585Y-120831991D01*
X95250500Y-120806865D01*
X95250499Y-118567136D01*
X95250497Y-118567117D01*
X95247586Y-118542012D01*
X95247585Y-118542010D01*
X95247585Y-118542009D01*
X95202206Y-118439235D01*
X95122765Y-118359794D01*
X95122763Y-118359793D01*
X95019992Y-118314415D01*
X94994865Y-118311500D01*
X91585143Y-118311500D01*
X91585117Y-118311502D01*
X91560012Y-118314413D01*
X91560008Y-118314415D01*
X91457235Y-118359793D01*
X91377794Y-118439234D01*
X91332415Y-118542006D01*
X91332415Y-118542008D01*
X91329500Y-118567131D01*
X91329500Y-118768518D01*
X91309815Y-118835557D01*
X91257011Y-118881312D01*
X91199789Y-118892386D01*
X87035384Y-118700386D01*
X87034501Y-118700343D01*
X86357905Y-118664312D01*
X86292007Y-118641090D01*
X86249125Y-118585927D01*
X86240499Y-118540487D01*
X86240499Y-117694785D01*
X97800001Y-117694785D01*
X97800002Y-117694808D01*
X97802908Y-117719869D01*
X97802909Y-117719873D01*
X97848211Y-117822474D01*
X97848214Y-117822479D01*
X97927520Y-117901785D01*
X97927525Y-117901788D01*
X98030123Y-117947089D01*
X98055206Y-117949999D01*
X98749999Y-117949999D01*
X99250000Y-117949999D01*
X99944786Y-117949999D01*
X99944808Y-117949997D01*
X99969869Y-117947091D01*
X99969873Y-117947090D01*
X100072474Y-117901788D01*
X100072479Y-117901785D01*
X100151785Y-117822479D01*
X100151788Y-117822474D01*
X100197089Y-117719877D01*
X100197089Y-117719875D01*
X100199999Y-117694794D01*
X100200000Y-117694791D01*
X100200000Y-116650000D01*
X99250000Y-116650000D01*
X99250000Y-117949999D01*
X98749999Y-117949999D01*
X98750000Y-117949998D01*
X98750000Y-116650000D01*
X97800001Y-116650000D01*
X97800001Y-117694785D01*
X86240499Y-117694785D01*
X86240499Y-117455143D01*
X86240499Y-117455136D01*
X86240497Y-117455117D01*
X86237586Y-117430012D01*
X86237585Y-117430010D01*
X86237585Y-117430009D01*
X86192206Y-117327235D01*
X86112765Y-117247794D01*
X86027446Y-117210122D01*
X85974070Y-117165036D01*
X85953543Y-117098250D01*
X85972381Y-117030968D01*
X86024605Y-116984551D01*
X86027359Y-116983292D01*
X86097765Y-116952206D01*
X86177206Y-116872765D01*
X86198776Y-116823914D01*
X86243862Y-116770537D01*
X86310648Y-116750010D01*
X86312210Y-116750000D01*
X96350000Y-116750000D01*
X96350000Y-116538465D01*
X96369685Y-116471426D01*
X96386319Y-116450784D01*
X96567304Y-116269799D01*
X96760489Y-116076614D01*
X96809438Y-115991831D01*
X96819799Y-115973886D01*
X96850500Y-115859309D01*
X96850500Y-115024000D01*
X96870185Y-114956961D01*
X96922989Y-114911206D01*
X96974500Y-114900000D01*
X97692142Y-114900000D01*
X97759181Y-114919685D01*
G37*
%TD.AperFunction*%
%TA.AperFunction,Conductor*%
G36*
X112072562Y-123755266D02*
G01*
X112091255Y-123755534D01*
X112105391Y-123764906D01*
X112121664Y-123769685D01*
X112133905Y-123783812D01*
X112149488Y-123794144D01*
X112156313Y-123809672D01*
X112167419Y-123822489D01*
X112170079Y-123840993D01*
X112177602Y-123858108D01*
X112177144Y-123890128D01*
X112177363Y-123891647D01*
X112177103Y-123893361D01*
X112170027Y-123938039D01*
X112167650Y-123953049D01*
X112167650Y-124170956D01*
X112201737Y-124386170D01*
X112269070Y-124593403D01*
X112269072Y-124593406D01*
X112367997Y-124787558D01*
X112496077Y-124963844D01*
X112650156Y-125117923D01*
X112826442Y-125246003D01*
X113020594Y-125344928D01*
X113020596Y-125344929D01*
X113124212Y-125378595D01*
X113227831Y-125412263D01*
X113327508Y-125428050D01*
X113443044Y-125446350D01*
X113443049Y-125446350D01*
X113660956Y-125446350D01*
X113765289Y-125429824D01*
X113876169Y-125412263D01*
X114083406Y-125344928D01*
X114277558Y-125246003D01*
X114453844Y-125117923D01*
X114607923Y-124963844D01*
X114675182Y-124871269D01*
X114730512Y-124828604D01*
X114800125Y-124822625D01*
X114861920Y-124855231D01*
X114896277Y-124916069D01*
X114899500Y-124944155D01*
X114899500Y-127348516D01*
X114885719Y-127405330D01*
X114730056Y-127707314D01*
X114681843Y-127757884D01*
X114619838Y-127774500D01*
X114380143Y-127774500D01*
X114380117Y-127774502D01*
X114355012Y-127777413D01*
X114355008Y-127777415D01*
X114252235Y-127822793D01*
X114172794Y-127902234D01*
X114127415Y-128005006D01*
X114127415Y-128005008D01*
X114124500Y-128030131D01*
X114124500Y-128919856D01*
X114124502Y-128919882D01*
X114127413Y-128944987D01*
X114127415Y-128944991D01*
X114172793Y-129047764D01*
X114172794Y-129047765D01*
X114252235Y-129127206D01*
X114355009Y-129172585D01*
X114380135Y-129175500D01*
X115419864Y-129175499D01*
X115419879Y-129175497D01*
X115419882Y-129175497D01*
X115444987Y-129172586D01*
X115444988Y-129172585D01*
X115444991Y-129172585D01*
X115547765Y-129127206D01*
X115627206Y-129047765D01*
X115672585Y-128944991D01*
X115675500Y-128919865D01*
X115675499Y-128087983D01*
X115689280Y-128031171D01*
X115742735Y-127927467D01*
X115839403Y-127739931D01*
X115866392Y-127693186D01*
X115869523Y-127681498D01*
X115875065Y-127670748D01*
X115885911Y-127620869D01*
X115887287Y-127615196D01*
X115900500Y-127565892D01*
X115900500Y-127553795D01*
X115903071Y-127541974D01*
X115900500Y-127488066D01*
X115900500Y-124524499D01*
X115920185Y-124457460D01*
X115972989Y-124411705D01*
X116024500Y-124400499D01*
X116874856Y-124400499D01*
X116874864Y-124400499D01*
X116874879Y-124400497D01*
X116874882Y-124400497D01*
X116899987Y-124397586D01*
X116899988Y-124397585D01*
X116899991Y-124397585D01*
X117002765Y-124352206D01*
X117082206Y-124272765D01*
X117127585Y-124169991D01*
X117130500Y-124144865D01*
X117130500Y-123874000D01*
X117150185Y-123806961D01*
X117202989Y-123761206D01*
X117254500Y-123750000D01*
X119376000Y-123750000D01*
X119443039Y-123769685D01*
X119488794Y-123822489D01*
X119500000Y-123874000D01*
X119500000Y-127575499D01*
X119480315Y-127642538D01*
X119427511Y-127688293D01*
X119376000Y-127699499D01*
X118005279Y-127699499D01*
X117944684Y-127698220D01*
X117939473Y-127699499D01*
X117934105Y-127699499D01*
X117876809Y-127714851D01*
X117874276Y-127715501D01*
X117549260Y-127795278D01*
X117479461Y-127792142D01*
X117469621Y-127788290D01*
X117444991Y-127777415D01*
X117419865Y-127774500D01*
X116380143Y-127774500D01*
X116380117Y-127774502D01*
X116355012Y-127777413D01*
X116355008Y-127777415D01*
X116252235Y-127822793D01*
X116172794Y-127902234D01*
X116127415Y-128005006D01*
X116127415Y-128005008D01*
X116124500Y-128030131D01*
X116124500Y-128919856D01*
X116124502Y-128919882D01*
X116127413Y-128944987D01*
X116127415Y-128944991D01*
X116172793Y-129047764D01*
X116172794Y-129047765D01*
X116252235Y-129127206D01*
X116355009Y-129172585D01*
X116380135Y-129175500D01*
X117419864Y-129175499D01*
X117419879Y-129175497D01*
X117419882Y-129175497D01*
X117444987Y-129172586D01*
X117444988Y-129172585D01*
X117444991Y-129172585D01*
X117547765Y-129127206D01*
X117627206Y-129047765D01*
X117672585Y-128944991D01*
X117675500Y-128919865D01*
X117675499Y-128892249D01*
X117695181Y-128825212D01*
X117747984Y-128779455D01*
X117769922Y-128771828D01*
X118045967Y-128704072D01*
X118075519Y-128700499D01*
X119376000Y-128700499D01*
X119443039Y-128720184D01*
X119488794Y-128772988D01*
X119500000Y-128824499D01*
X119500000Y-130715499D01*
X119480315Y-130782538D01*
X119427511Y-130828293D01*
X119376000Y-130839499D01*
X117754925Y-130839499D01*
X117687886Y-130819814D01*
X117642131Y-130767010D01*
X117632187Y-130697852D01*
X117641491Y-130665412D01*
X117658091Y-130627818D01*
X117672585Y-130594991D01*
X117675500Y-130569865D01*
X117675499Y-129680136D01*
X117675497Y-129680117D01*
X117672586Y-129655012D01*
X117672585Y-129655010D01*
X117672585Y-129655009D01*
X117627206Y-129552235D01*
X117547765Y-129472794D01*
X117547763Y-129472793D01*
X117444992Y-129427415D01*
X117419865Y-129424500D01*
X116380143Y-129424500D01*
X116380117Y-129424502D01*
X116355012Y-129427413D01*
X116355008Y-129427415D01*
X116252235Y-129472793D01*
X116252234Y-129472794D01*
X116191848Y-129533181D01*
X116130525Y-129566666D01*
X116104167Y-129569500D01*
X115695833Y-129569500D01*
X115628794Y-129549815D01*
X115608152Y-129533181D01*
X115547765Y-129472794D01*
X115444992Y-129427415D01*
X115419865Y-129424500D01*
X114380143Y-129424500D01*
X114380117Y-129424502D01*
X114355012Y-129427413D01*
X114355008Y-129427415D01*
X114252235Y-129472793D01*
X114252234Y-129472794D01*
X114191848Y-129533181D01*
X114130525Y-129566666D01*
X114104167Y-129569500D01*
X113695833Y-129569500D01*
X113628794Y-129549815D01*
X113608152Y-129533181D01*
X113547765Y-129472794D01*
X113444992Y-129427415D01*
X113419865Y-129424500D01*
X112380143Y-129424500D01*
X112380117Y-129424502D01*
X112355012Y-129427413D01*
X112355008Y-129427415D01*
X112252235Y-129472793D01*
X112172794Y-129552234D01*
X112127415Y-129655006D01*
X112127415Y-129655008D01*
X112124500Y-129680131D01*
X112124500Y-130569856D01*
X112124502Y-130569882D01*
X112127413Y-130594987D01*
X112127415Y-130594991D01*
X112158509Y-130665413D01*
X112167581Y-130734691D01*
X112137757Y-130797876D01*
X112078508Y-130834907D01*
X112045075Y-130839499D01*
X101604925Y-130839499D01*
X101537886Y-130819814D01*
X101492131Y-130767010D01*
X101482187Y-130697852D01*
X101491491Y-130665412D01*
X101508091Y-130627818D01*
X101522585Y-130594991D01*
X101525500Y-130569865D01*
X101525499Y-130428399D01*
X101545183Y-130361361D01*
X101597987Y-130315606D01*
X101617932Y-130308486D01*
X103400204Y-129839468D01*
X103443745Y-129831050D01*
X103457357Y-129824427D01*
X103469117Y-129821333D01*
X103469119Y-129821333D01*
X103469125Y-129821330D01*
X103472006Y-129820573D01*
X103510530Y-129798560D01*
X103550411Y-129779159D01*
X103561847Y-129769237D01*
X103574997Y-129761724D01*
X103606506Y-129730495D01*
X103640013Y-129701428D01*
X103648493Y-129688882D01*
X103659248Y-129678224D01*
X103679534Y-129643446D01*
X103683887Y-129636521D01*
X103706443Y-129603156D01*
X103711389Y-129588837D01*
X103719016Y-129575763D01*
X103730684Y-129532982D01*
X104087843Y-128499099D01*
X104097660Y-128477589D01*
X104099799Y-128473886D01*
X104109881Y-128436255D01*
X104112451Y-128427866D01*
X104114701Y-128421354D01*
X104125174Y-128391039D01*
X104125476Y-128386773D01*
X104129392Y-128363444D01*
X104130500Y-128359309D01*
X104130500Y-128320343D01*
X104130811Y-128311570D01*
X104133708Y-128270726D01*
X104158086Y-128205247D01*
X104213995Y-128163343D01*
X104257397Y-128155499D01*
X104374756Y-128155499D01*
X104374764Y-128155499D01*
X104374779Y-128155497D01*
X104374782Y-128155497D01*
X104399887Y-128152586D01*
X104399888Y-128152585D01*
X104399891Y-128152585D01*
X104502665Y-128107206D01*
X104582106Y-128027765D01*
X104627485Y-127924991D01*
X104628116Y-127919550D01*
X104655393Y-127855226D01*
X104713118Y-127815860D01*
X104782961Y-127813951D01*
X104842749Y-127850105D01*
X104873500Y-127912844D01*
X104874464Y-127919552D01*
X104877414Y-127944988D01*
X104877415Y-127944991D01*
X104922793Y-128047764D01*
X105002234Y-128127205D01*
X105011714Y-128133699D01*
X105010882Y-128134912D01*
X105054613Y-128171851D01*
X105075140Y-128238637D01*
X105058538Y-128302198D01*
X105020423Y-128368215D01*
X105020423Y-128368216D01*
X104979500Y-128520943D01*
X104979500Y-128679057D01*
X105013308Y-128805228D01*
X105020423Y-128831783D01*
X105020426Y-128831790D01*
X105099475Y-128968709D01*
X105099479Y-128968714D01*
X105099480Y-128968716D01*
X105211284Y-129080520D01*
X105211286Y-129080521D01*
X105211290Y-129080524D01*
X105292147Y-129127206D01*
X105348216Y-129159577D01*
X105500943Y-129200500D01*
X105500945Y-129200500D01*
X105659055Y-129200500D01*
X105659057Y-129200500D01*
X105811784Y-129159577D01*
X105948716Y-129080520D01*
X105967417Y-129061819D01*
X106028740Y-129028334D01*
X106055098Y-129025500D01*
X108392308Y-129025500D01*
X108440613Y-129027246D01*
X108448218Y-129025500D01*
X108456018Y-129025500D01*
X108500545Y-129013568D01*
X108504828Y-129012503D01*
X108549808Y-129002177D01*
X108556702Y-128998521D01*
X108564237Y-128996503D01*
X108606091Y-128972338D01*
X108648795Y-128949699D01*
X108648800Y-128949694D01*
X108655114Y-128945201D01*
X108661252Y-128940491D01*
X108661263Y-128940485D01*
X108693887Y-128907859D01*
X108697056Y-128904803D01*
X109084507Y-128544384D01*
X109091263Y-128540484D01*
X109125435Y-128506311D01*
X109160826Y-128473390D01*
X109160831Y-128473381D01*
X109165770Y-128467405D01*
X109170481Y-128461265D01*
X109170485Y-128461262D01*
X109193539Y-128421329D01*
X109195836Y-128417513D01*
X109212424Y-128391039D01*
X109220312Y-128378450D01*
X109222601Y-128370993D01*
X109226503Y-128364236D01*
X109239011Y-128317551D01*
X109253199Y-128271350D01*
X109253199Y-128271345D01*
X109253200Y-128271343D01*
X109254040Y-128266358D01*
X109254344Y-128263158D01*
X109255372Y-128256490D01*
X109255500Y-128256017D01*
X109255500Y-128255667D01*
X109256017Y-128252318D01*
X109257129Y-128249947D01*
X109257130Y-128249936D01*
X109257613Y-128248136D01*
X109257938Y-128248223D01*
X109270296Y-128221885D01*
X109283892Y-128191152D01*
X109285165Y-128190199D01*
X109285697Y-128189066D01*
X109291833Y-128185211D01*
X109328476Y-128157799D01*
X109397765Y-128127206D01*
X109477206Y-128047765D01*
X109522585Y-127944991D01*
X109525500Y-127919865D01*
X109525499Y-126880136D01*
X109525499Y-126880135D01*
X109525499Y-126880131D01*
X109774500Y-126880131D01*
X109774500Y-127919856D01*
X109774502Y-127919882D01*
X109777413Y-127944987D01*
X109777415Y-127944991D01*
X109822793Y-128047764D01*
X109822794Y-128047765D01*
X109902235Y-128127206D01*
X109902237Y-128127207D01*
X109911718Y-128133702D01*
X109909919Y-128136327D01*
X109926703Y-128143992D01*
X109935926Y-128158343D01*
X109948959Y-128169351D01*
X109954423Y-128187126D01*
X109964477Y-128202770D01*
X109969084Y-128234818D01*
X109969490Y-128236136D01*
X109969500Y-128237705D01*
X109969500Y-128482664D01*
X109952888Y-128544663D01*
X109910423Y-128618215D01*
X109910423Y-128618216D01*
X109869500Y-128770943D01*
X109869500Y-128929057D01*
X109910086Y-129080524D01*
X109910423Y-129081783D01*
X109910426Y-129081790D01*
X109989475Y-129218709D01*
X109989479Y-129218714D01*
X109989480Y-129218716D01*
X110101284Y-129330520D01*
X110101286Y-129330521D01*
X110101290Y-129330524D01*
X110200112Y-129387578D01*
X110238216Y-129409577D01*
X110390943Y-129450500D01*
X110390945Y-129450500D01*
X110549055Y-129450500D01*
X110549057Y-129450500D01*
X110701784Y-129409577D01*
X110838716Y-129330520D01*
X110950520Y-129218716D01*
X111029577Y-129081784D01*
X111070500Y-128929057D01*
X111070500Y-128919785D01*
X112125001Y-128919785D01*
X112125002Y-128919808D01*
X112127908Y-128944869D01*
X112127909Y-128944873D01*
X112173211Y-129047474D01*
X112173214Y-129047479D01*
X112252520Y-129126785D01*
X112252525Y-129126788D01*
X112355123Y-129172089D01*
X112380206Y-129174999D01*
X112649999Y-129174999D01*
X113150000Y-129174999D01*
X113419786Y-129174999D01*
X113419808Y-129174997D01*
X113444869Y-129172091D01*
X113444873Y-129172090D01*
X113547474Y-129126788D01*
X113547479Y-129126785D01*
X113626785Y-129047479D01*
X113626788Y-129047474D01*
X113672089Y-128944877D01*
X113672089Y-128944875D01*
X113674999Y-128919794D01*
X113675000Y-128919791D01*
X113675000Y-128725000D01*
X113150000Y-128725000D01*
X113150000Y-129174999D01*
X112649999Y-129174999D01*
X112650000Y-129174998D01*
X112650000Y-128725000D01*
X112125001Y-128725000D01*
X112125001Y-128919785D01*
X111070500Y-128919785D01*
X111070500Y-128770943D01*
X111029577Y-128618216D01*
X110982937Y-128537432D01*
X110979769Y-128529705D01*
X110977657Y-128509376D01*
X110970500Y-128482664D01*
X110970500Y-128242120D01*
X110990185Y-128175081D01*
X111042989Y-128129326D01*
X111044418Y-128128684D01*
X111045657Y-128128136D01*
X111047765Y-128127206D01*
X111127206Y-128047765D01*
X111134959Y-128030205D01*
X112125000Y-128030205D01*
X112125000Y-128225000D01*
X112650000Y-128225000D01*
X113150000Y-128225000D01*
X113674999Y-128225000D01*
X113674999Y-128030214D01*
X113674997Y-128030191D01*
X113672091Y-128005130D01*
X113672090Y-128005126D01*
X113626788Y-127902525D01*
X113626785Y-127902520D01*
X113547479Y-127823214D01*
X113547474Y-127823211D01*
X113444876Y-127777910D01*
X113419794Y-127775000D01*
X113150000Y-127775000D01*
X113150000Y-128225000D01*
X112650000Y-128225000D01*
X112650000Y-127775000D01*
X112380214Y-127775000D01*
X112380191Y-127775002D01*
X112355130Y-127777908D01*
X112355126Y-127777909D01*
X112252525Y-127823211D01*
X112252520Y-127823214D01*
X112173214Y-127902520D01*
X112173211Y-127902525D01*
X112127910Y-128005122D01*
X112127910Y-128005124D01*
X112125000Y-128030205D01*
X111134959Y-128030205D01*
X111172585Y-127944991D01*
X111175500Y-127919865D01*
X111175499Y-126880136D01*
X111175097Y-126876666D01*
X111172586Y-126855012D01*
X111172585Y-126855010D01*
X111172585Y-126855009D01*
X111127206Y-126752235D01*
X111047765Y-126672794D01*
X111045047Y-126671594D01*
X110944992Y-126627415D01*
X110919865Y-126624500D01*
X110030143Y-126624500D01*
X110030117Y-126624502D01*
X110005012Y-126627413D01*
X110005008Y-126627415D01*
X109902235Y-126672793D01*
X109822794Y-126752234D01*
X109777415Y-126855006D01*
X109777415Y-126855008D01*
X109774500Y-126880131D01*
X109525499Y-126880131D01*
X109525499Y-126880130D01*
X109522586Y-126855012D01*
X109522585Y-126855010D01*
X109522585Y-126855009D01*
X109477206Y-126752235D01*
X109397765Y-126672794D01*
X109395047Y-126671594D01*
X109294992Y-126627415D01*
X109269865Y-126624500D01*
X108380143Y-126624500D01*
X108380117Y-126624502D01*
X108355012Y-126627413D01*
X108355008Y-126627415D01*
X108252235Y-126672793D01*
X108172795Y-126752233D01*
X108138160Y-126830672D01*
X108093073Y-126884047D01*
X108026287Y-126904574D01*
X107959005Y-126885735D01*
X107912589Y-126833511D01*
X107911291Y-126830668D01*
X107876789Y-126752526D01*
X107876785Y-126752520D01*
X107797479Y-126673214D01*
X107797474Y-126673211D01*
X107694876Y-126627910D01*
X107669794Y-126625000D01*
X107475000Y-126625000D01*
X107475000Y-127276000D01*
X107455315Y-127343039D01*
X107402511Y-127388794D01*
X107351000Y-127400000D01*
X107225000Y-127400000D01*
X107225000Y-127526000D01*
X107205315Y-127593039D01*
X107152511Y-127638794D01*
X107101000Y-127650000D01*
X106525001Y-127650000D01*
X106525001Y-127919785D01*
X106525002Y-127919808D01*
X106527908Y-127944869D01*
X106527909Y-127944873D01*
X106552433Y-128000415D01*
X106556874Y-128034335D01*
X106561736Y-128068147D01*
X106561398Y-128068886D01*
X106561504Y-128069694D01*
X106546912Y-128100605D01*
X106532711Y-128131703D01*
X106532025Y-128132143D01*
X106531679Y-128132878D01*
X106502726Y-128150972D01*
X106473933Y-128169477D01*
X106472875Y-128169629D01*
X106472429Y-128169908D01*
X106438998Y-128174500D01*
X106361548Y-128174500D01*
X106294509Y-128154815D01*
X106248754Y-128102011D01*
X106238810Y-128032853D01*
X106248114Y-128000414D01*
X106272583Y-127944995D01*
X106272585Y-127944991D01*
X106275500Y-127919865D01*
X106275499Y-126880205D01*
X106525000Y-126880205D01*
X106525000Y-127150000D01*
X106975000Y-127150000D01*
X106975000Y-126625000D01*
X106780214Y-126625000D01*
X106780191Y-126625002D01*
X106755130Y-126627908D01*
X106755126Y-126627909D01*
X106652525Y-126673211D01*
X106652520Y-126673214D01*
X106573214Y-126752520D01*
X106573211Y-126752525D01*
X106527910Y-126855122D01*
X106527910Y-126855124D01*
X106525000Y-126880205D01*
X106275499Y-126880205D01*
X106275499Y-126880136D01*
X106275097Y-126876666D01*
X106272586Y-126855012D01*
X106272585Y-126855010D01*
X106272585Y-126855009D01*
X106227206Y-126752235D01*
X106147765Y-126672794D01*
X106145047Y-126671594D01*
X106044992Y-126627415D01*
X106019868Y-126624500D01*
X106019865Y-126624500D01*
X105969564Y-126624500D01*
X105951846Y-126619297D01*
X105933378Y-126619103D01*
X105919014Y-126609657D01*
X105902525Y-126604815D01*
X105890432Y-126590859D01*
X105875001Y-126580711D01*
X105868025Y-126565000D01*
X105856770Y-126552011D01*
X105854141Y-126533732D01*
X105846647Y-126516853D01*
X105849272Y-126499866D01*
X105846826Y-126482853D01*
X105854498Y-126466052D01*
X105857319Y-126447803D01*
X105875362Y-126420367D01*
X105875851Y-126419297D01*
X105876712Y-126418315D01*
X105907893Y-126383087D01*
X105913048Y-126377606D01*
X105944114Y-126346542D01*
X105956032Y-126328704D01*
X105970250Y-126312643D01*
X105994280Y-126271463D01*
X106020775Y-126231811D01*
X106028984Y-126211991D01*
X106039796Y-126193464D01*
X106055331Y-126148382D01*
X106073580Y-126104328D01*
X106077765Y-126083287D01*
X106084754Y-126063008D01*
X106091195Y-126015768D01*
X106094416Y-125999574D01*
X106100500Y-125968996D01*
X106100500Y-125947537D01*
X106103398Y-125926285D01*
X106100500Y-125878694D01*
X106100500Y-125819785D01*
X106465001Y-125819785D01*
X106465002Y-125819808D01*
X106467908Y-125844869D01*
X106467909Y-125844873D01*
X106513211Y-125947474D01*
X106513214Y-125947479D01*
X106592520Y-126026785D01*
X106592525Y-126026788D01*
X106695123Y-126072089D01*
X106720206Y-126074999D01*
X107389999Y-126074999D01*
X107890000Y-126074999D01*
X108559786Y-126074999D01*
X108559808Y-126074997D01*
X108584869Y-126072091D01*
X108584873Y-126072090D01*
X108687474Y-126026788D01*
X108687479Y-126026785D01*
X108766785Y-125947479D01*
X108766788Y-125947474D01*
X108812089Y-125844877D01*
X108812089Y-125844875D01*
X108814999Y-125819794D01*
X108815000Y-125819791D01*
X108815000Y-125819785D01*
X109255001Y-125819785D01*
X109255002Y-125819808D01*
X109257908Y-125844869D01*
X109257909Y-125844873D01*
X109303211Y-125947474D01*
X109303214Y-125947479D01*
X109382520Y-126026785D01*
X109382525Y-126026788D01*
X109485123Y-126072089D01*
X109510206Y-126074999D01*
X110179999Y-126074999D01*
X110680000Y-126074999D01*
X111349786Y-126074999D01*
X111349808Y-126074997D01*
X111374869Y-126072091D01*
X111374873Y-126072090D01*
X111477474Y-126026788D01*
X111477479Y-126026785D01*
X111556785Y-125947479D01*
X111556788Y-125947474D01*
X111602089Y-125844877D01*
X111602089Y-125844875D01*
X111604999Y-125819794D01*
X111605000Y-125819791D01*
X111605000Y-125462500D01*
X110680000Y-125462500D01*
X110680000Y-126074999D01*
X110179999Y-126074999D01*
X110180000Y-126074998D01*
X110180000Y-125462500D01*
X109255001Y-125462500D01*
X109255001Y-125819785D01*
X108815000Y-125819785D01*
X108815000Y-125462500D01*
X107890000Y-125462500D01*
X107890000Y-126074999D01*
X107389999Y-126074999D01*
X107390000Y-126074998D01*
X107390000Y-125462500D01*
X106465001Y-125462500D01*
X106465001Y-125819785D01*
X106100500Y-125819785D01*
X106100500Y-124605205D01*
X106465000Y-124605205D01*
X106465000Y-124962500D01*
X107390000Y-124962500D01*
X107890000Y-124962500D01*
X108814999Y-124962500D01*
X108814999Y-124605205D01*
X109255000Y-124605205D01*
X109255000Y-124962500D01*
X110180000Y-124962500D01*
X110680000Y-124962500D01*
X111604999Y-124962500D01*
X111604999Y-124605214D01*
X111604997Y-124605191D01*
X111602091Y-124580130D01*
X111602090Y-124580126D01*
X111556788Y-124477525D01*
X111556785Y-124477520D01*
X111477479Y-124398214D01*
X111477474Y-124398211D01*
X111374876Y-124352910D01*
X111349794Y-124350000D01*
X110680000Y-124350000D01*
X110680000Y-124962500D01*
X110180000Y-124962500D01*
X110180000Y-124350000D01*
X109510214Y-124350000D01*
X109510191Y-124350002D01*
X109485130Y-124352908D01*
X109485126Y-124352909D01*
X109382525Y-124398211D01*
X109382520Y-124398214D01*
X109303214Y-124477520D01*
X109303211Y-124477525D01*
X109257910Y-124580122D01*
X109257910Y-124580124D01*
X109255000Y-124605205D01*
X108814999Y-124605205D01*
X108814999Y-124605202D01*
X108812091Y-124580130D01*
X108812090Y-124580126D01*
X108766788Y-124477525D01*
X108766785Y-124477520D01*
X108687479Y-124398214D01*
X108687474Y-124398211D01*
X108584876Y-124352910D01*
X108559794Y-124350000D01*
X107890000Y-124350000D01*
X107890000Y-124962500D01*
X107390000Y-124962500D01*
X107390000Y-124350000D01*
X106720214Y-124350000D01*
X106720191Y-124350002D01*
X106695130Y-124352908D01*
X106695126Y-124352909D01*
X106592525Y-124398211D01*
X106592520Y-124398214D01*
X106513214Y-124477520D01*
X106513211Y-124477525D01*
X106467910Y-124580122D01*
X106467910Y-124580124D01*
X106465000Y-124605205D01*
X106100500Y-124605205D01*
X106100500Y-123874000D01*
X106120185Y-123806961D01*
X106172989Y-123761206D01*
X106224500Y-123750000D01*
X112054625Y-123750000D01*
X112072562Y-123755266D01*
G37*
%TD.AperFunction*%
%TA.AperFunction,Conductor*%
G36*
X102735102Y-124149437D02*
G01*
X102767335Y-124193066D01*
X102778113Y-124217477D01*
X102778114Y-124217479D01*
X102852601Y-124291966D01*
X102853897Y-124294341D01*
X102856218Y-124295738D01*
X102870550Y-124324837D01*
X102886086Y-124353289D01*
X102885892Y-124355988D01*
X102887089Y-124358417D01*
X102883415Y-124390633D01*
X102881102Y-124422981D01*
X102879385Y-124425972D01*
X102879173Y-124427837D01*
X102873355Y-124436482D01*
X102860968Y-124458074D01*
X102857020Y-124462908D01*
X102777694Y-124542235D01*
X102760557Y-124581045D01*
X102749947Y-124594040D01*
X102734402Y-124604684D01*
X102722246Y-124619076D01*
X102706173Y-124624016D01*
X102692299Y-124633517D01*
X102673468Y-124634068D01*
X102655460Y-124639603D01*
X102639267Y-124635069D01*
X102622459Y-124635561D01*
X102606318Y-124625843D01*
X102588178Y-124620764D01*
X102577007Y-124608195D01*
X102562601Y-124599522D01*
X102554276Y-124582620D01*
X102541762Y-124568540D01*
X102537102Y-124547750D01*
X102531730Y-124536843D01*
X102532717Y-124528186D01*
X102529899Y-124515613D01*
X102529899Y-124243150D01*
X102549584Y-124176111D01*
X102602388Y-124130356D01*
X102671546Y-124120412D01*
X102735102Y-124149437D01*
G37*
%TD.AperFunction*%
%TD*%
M02*
