%TF.GenerationSoftware,KiCad,Pcbnew,9.0.2+dfsg-1*%
%TF.CreationDate,2026-08-25T23:55:41+02:00*%
%TF.ProjectId,abb-welcome-gateway-v3,6162622d-7765-46c6-936f-6d652d676174,rev?*%
%TF.SameCoordinates,Original*%
%TF.FileFunction,Legend,Bot*%
%TF.FilePolarity,Positive*%
%FSLAX46Y46*%
G04 Gerber Fmt 4.6, Leading zero omitted, Abs format (unit mm)*
G04 Created by KiCad (PCBNEW 9.0.2+dfsg-1) date 2026-08-25 23:55:41*
%MOMM*%
%LPD*%
G01*
G04 APERTURE LIST*
%ADD10C,0.200000*%
%ADD11C,0.250000*%
G04 APERTURE END LIST*
D10*
X101714285Y-109244742D02*
X101428571Y-110044742D01*
X101428571Y-110044742D02*
X101142856Y-109244742D01*
X100799999Y-108844742D02*
X100057142Y-108844742D01*
X100057142Y-108844742D02*
X100457142Y-109301885D01*
X100457142Y-109301885D02*
X100285713Y-109301885D01*
X100285713Y-109301885D02*
X100171428Y-109359028D01*
X100171428Y-109359028D02*
X100114285Y-109416171D01*
X100114285Y-109416171D02*
X100057142Y-109530457D01*
X100057142Y-109530457D02*
X100057142Y-109816171D01*
X100057142Y-109816171D02*
X100114285Y-109930457D01*
X100114285Y-109930457D02*
X100171428Y-109987600D01*
X100171428Y-109987600D02*
X100285713Y-110044742D01*
X100285713Y-110044742D02*
X100628570Y-110044742D01*
X100628570Y-110044742D02*
X100742856Y-109987600D01*
X100742856Y-109987600D02*
X100799999Y-109930457D01*
X99542856Y-109930457D02*
X99485713Y-109987600D01*
X99485713Y-109987600D02*
X99542856Y-110044742D01*
X99542856Y-110044742D02*
X99599999Y-109987600D01*
X99599999Y-109987600D02*
X99542856Y-109930457D01*
X99542856Y-109930457D02*
X99542856Y-110044742D01*
X98742856Y-108844742D02*
X98628570Y-108844742D01*
X98628570Y-108844742D02*
X98514284Y-108901885D01*
X98514284Y-108901885D02*
X98457142Y-108959028D01*
X98457142Y-108959028D02*
X98399999Y-109073314D01*
X98399999Y-109073314D02*
X98342856Y-109301885D01*
X98342856Y-109301885D02*
X98342856Y-109587600D01*
X98342856Y-109587600D02*
X98399999Y-109816171D01*
X98399999Y-109816171D02*
X98457142Y-109930457D01*
X98457142Y-109930457D02*
X98514284Y-109987600D01*
X98514284Y-109987600D02*
X98628570Y-110044742D01*
X98628570Y-110044742D02*
X98742856Y-110044742D01*
X98742856Y-110044742D02*
X98857142Y-109987600D01*
X98857142Y-109987600D02*
X98914284Y-109930457D01*
X98914284Y-109930457D02*
X98971427Y-109816171D01*
X98971427Y-109816171D02*
X99028570Y-109587600D01*
X99028570Y-109587600D02*
X99028570Y-109301885D01*
X99028570Y-109301885D02*
X98971427Y-109073314D01*
X98971427Y-109073314D02*
X98914284Y-108959028D01*
X98914284Y-108959028D02*
X98857142Y-108901885D01*
X98857142Y-108901885D02*
X98742856Y-108844742D01*
D11*
X115785713Y-107252357D02*
X115071428Y-107252357D01*
X115928570Y-107680928D02*
X115428570Y-106180928D01*
X115428570Y-106180928D02*
X114928570Y-107680928D01*
X113928571Y-106895214D02*
X113714285Y-106966642D01*
X113714285Y-106966642D02*
X113642856Y-107038071D01*
X113642856Y-107038071D02*
X113571428Y-107180928D01*
X113571428Y-107180928D02*
X113571428Y-107395214D01*
X113571428Y-107395214D02*
X113642856Y-107538071D01*
X113642856Y-107538071D02*
X113714285Y-107609500D01*
X113714285Y-107609500D02*
X113857142Y-107680928D01*
X113857142Y-107680928D02*
X114428571Y-107680928D01*
X114428571Y-107680928D02*
X114428571Y-106180928D01*
X114428571Y-106180928D02*
X113928571Y-106180928D01*
X113928571Y-106180928D02*
X113785714Y-106252357D01*
X113785714Y-106252357D02*
X113714285Y-106323785D01*
X113714285Y-106323785D02*
X113642856Y-106466642D01*
X113642856Y-106466642D02*
X113642856Y-106609500D01*
X113642856Y-106609500D02*
X113714285Y-106752357D01*
X113714285Y-106752357D02*
X113785714Y-106823785D01*
X113785714Y-106823785D02*
X113928571Y-106895214D01*
X113928571Y-106895214D02*
X114428571Y-106895214D01*
X112428571Y-106895214D02*
X112214285Y-106966642D01*
X112214285Y-106966642D02*
X112142856Y-107038071D01*
X112142856Y-107038071D02*
X112071428Y-107180928D01*
X112071428Y-107180928D02*
X112071428Y-107395214D01*
X112071428Y-107395214D02*
X112142856Y-107538071D01*
X112142856Y-107538071D02*
X112214285Y-107609500D01*
X112214285Y-107609500D02*
X112357142Y-107680928D01*
X112357142Y-107680928D02*
X112928571Y-107680928D01*
X112928571Y-107680928D02*
X112928571Y-106180928D01*
X112928571Y-106180928D02*
X112428571Y-106180928D01*
X112428571Y-106180928D02*
X112285714Y-106252357D01*
X112285714Y-106252357D02*
X112214285Y-106323785D01*
X112214285Y-106323785D02*
X112142856Y-106466642D01*
X112142856Y-106466642D02*
X112142856Y-106609500D01*
X112142856Y-106609500D02*
X112214285Y-106752357D01*
X112214285Y-106752357D02*
X112285714Y-106823785D01*
X112285714Y-106823785D02*
X112428571Y-106895214D01*
X112428571Y-106895214D02*
X112928571Y-106895214D01*
X111428571Y-107109500D02*
X110285714Y-107109500D01*
X109714285Y-106180928D02*
X109357142Y-107680928D01*
X109357142Y-107680928D02*
X109071428Y-106609500D01*
X109071428Y-106609500D02*
X108785713Y-107680928D01*
X108785713Y-107680928D02*
X108428571Y-106180928D01*
X107285713Y-107609500D02*
X107428570Y-107680928D01*
X107428570Y-107680928D02*
X107714285Y-107680928D01*
X107714285Y-107680928D02*
X107857142Y-107609500D01*
X107857142Y-107609500D02*
X107928570Y-107466642D01*
X107928570Y-107466642D02*
X107928570Y-106895214D01*
X107928570Y-106895214D02*
X107857142Y-106752357D01*
X107857142Y-106752357D02*
X107714285Y-106680928D01*
X107714285Y-106680928D02*
X107428570Y-106680928D01*
X107428570Y-106680928D02*
X107285713Y-106752357D01*
X107285713Y-106752357D02*
X107214285Y-106895214D01*
X107214285Y-106895214D02*
X107214285Y-107038071D01*
X107214285Y-107038071D02*
X107928570Y-107180928D01*
X106357142Y-107680928D02*
X106499999Y-107609500D01*
X106499999Y-107609500D02*
X106571428Y-107466642D01*
X106571428Y-107466642D02*
X106571428Y-106180928D01*
X105142857Y-107609500D02*
X105285714Y-107680928D01*
X105285714Y-107680928D02*
X105571428Y-107680928D01*
X105571428Y-107680928D02*
X105714285Y-107609500D01*
X105714285Y-107609500D02*
X105785714Y-107538071D01*
X105785714Y-107538071D02*
X105857142Y-107395214D01*
X105857142Y-107395214D02*
X105857142Y-106966642D01*
X105857142Y-106966642D02*
X105785714Y-106823785D01*
X105785714Y-106823785D02*
X105714285Y-106752357D01*
X105714285Y-106752357D02*
X105571428Y-106680928D01*
X105571428Y-106680928D02*
X105285714Y-106680928D01*
X105285714Y-106680928D02*
X105142857Y-106752357D01*
X104285714Y-107680928D02*
X104428571Y-107609500D01*
X104428571Y-107609500D02*
X104500000Y-107538071D01*
X104500000Y-107538071D02*
X104571428Y-107395214D01*
X104571428Y-107395214D02*
X104571428Y-106966642D01*
X104571428Y-106966642D02*
X104500000Y-106823785D01*
X104500000Y-106823785D02*
X104428571Y-106752357D01*
X104428571Y-106752357D02*
X104285714Y-106680928D01*
X104285714Y-106680928D02*
X104071428Y-106680928D01*
X104071428Y-106680928D02*
X103928571Y-106752357D01*
X103928571Y-106752357D02*
X103857143Y-106823785D01*
X103857143Y-106823785D02*
X103785714Y-106966642D01*
X103785714Y-106966642D02*
X103785714Y-107395214D01*
X103785714Y-107395214D02*
X103857143Y-107538071D01*
X103857143Y-107538071D02*
X103928571Y-107609500D01*
X103928571Y-107609500D02*
X104071428Y-107680928D01*
X104071428Y-107680928D02*
X104285714Y-107680928D01*
X103142857Y-107680928D02*
X103142857Y-106680928D01*
X103142857Y-106823785D02*
X103071428Y-106752357D01*
X103071428Y-106752357D02*
X102928571Y-106680928D01*
X102928571Y-106680928D02*
X102714285Y-106680928D01*
X102714285Y-106680928D02*
X102571428Y-106752357D01*
X102571428Y-106752357D02*
X102500000Y-106895214D01*
X102500000Y-106895214D02*
X102500000Y-107680928D01*
X102500000Y-106895214D02*
X102428571Y-106752357D01*
X102428571Y-106752357D02*
X102285714Y-106680928D01*
X102285714Y-106680928D02*
X102071428Y-106680928D01*
X102071428Y-106680928D02*
X101928571Y-106752357D01*
X101928571Y-106752357D02*
X101857142Y-106895214D01*
X101857142Y-106895214D02*
X101857142Y-107680928D01*
X100571428Y-107609500D02*
X100714285Y-107680928D01*
X100714285Y-107680928D02*
X101000000Y-107680928D01*
X101000000Y-107680928D02*
X101142857Y-107609500D01*
X101142857Y-107609500D02*
X101214285Y-107466642D01*
X101214285Y-107466642D02*
X101214285Y-106895214D01*
X101214285Y-106895214D02*
X101142857Y-106752357D01*
X101142857Y-106752357D02*
X101000000Y-106680928D01*
X101000000Y-106680928D02*
X100714285Y-106680928D01*
X100714285Y-106680928D02*
X100571428Y-106752357D01*
X100571428Y-106752357D02*
X100500000Y-106895214D01*
X100500000Y-106895214D02*
X100500000Y-107038071D01*
X100500000Y-107038071D02*
X101214285Y-107180928D01*
X98214286Y-106895214D02*
X98000000Y-106966642D01*
X98000000Y-106966642D02*
X97928571Y-107038071D01*
X97928571Y-107038071D02*
X97857143Y-107180928D01*
X97857143Y-107180928D02*
X97857143Y-107395214D01*
X97857143Y-107395214D02*
X97928571Y-107538071D01*
X97928571Y-107538071D02*
X98000000Y-107609500D01*
X98000000Y-107609500D02*
X98142857Y-107680928D01*
X98142857Y-107680928D02*
X98714286Y-107680928D01*
X98714286Y-107680928D02*
X98714286Y-106180928D01*
X98714286Y-106180928D02*
X98214286Y-106180928D01*
X98214286Y-106180928D02*
X98071429Y-106252357D01*
X98071429Y-106252357D02*
X98000000Y-106323785D01*
X98000000Y-106323785D02*
X97928571Y-106466642D01*
X97928571Y-106466642D02*
X97928571Y-106609500D01*
X97928571Y-106609500D02*
X98000000Y-106752357D01*
X98000000Y-106752357D02*
X98071429Y-106823785D01*
X98071429Y-106823785D02*
X98214286Y-106895214D01*
X98214286Y-106895214D02*
X98714286Y-106895214D01*
X96571429Y-106680928D02*
X96571429Y-107680928D01*
X97214286Y-106680928D02*
X97214286Y-107466642D01*
X97214286Y-107466642D02*
X97142857Y-107609500D01*
X97142857Y-107609500D02*
X97000000Y-107680928D01*
X97000000Y-107680928D02*
X96785714Y-107680928D01*
X96785714Y-107680928D02*
X96642857Y-107609500D01*
X96642857Y-107609500D02*
X96571429Y-107538071D01*
X95928571Y-107609500D02*
X95785714Y-107680928D01*
X95785714Y-107680928D02*
X95500000Y-107680928D01*
X95500000Y-107680928D02*
X95357143Y-107609500D01*
X95357143Y-107609500D02*
X95285714Y-107466642D01*
X95285714Y-107466642D02*
X95285714Y-107395214D01*
X95285714Y-107395214D02*
X95357143Y-107252357D01*
X95357143Y-107252357D02*
X95500000Y-107180928D01*
X95500000Y-107180928D02*
X95714286Y-107180928D01*
X95714286Y-107180928D02*
X95857143Y-107109500D01*
X95857143Y-107109500D02*
X95928571Y-106966642D01*
X95928571Y-106966642D02*
X95928571Y-106895214D01*
X95928571Y-106895214D02*
X95857143Y-106752357D01*
X95857143Y-106752357D02*
X95714286Y-106680928D01*
X95714286Y-106680928D02*
X95500000Y-106680928D01*
X95500000Y-106680928D02*
X95357143Y-106752357D01*
X93500000Y-107680928D02*
X93500000Y-106180928D01*
X92785714Y-106680928D02*
X92785714Y-107680928D01*
X92785714Y-106823785D02*
X92714285Y-106752357D01*
X92714285Y-106752357D02*
X92571428Y-106680928D01*
X92571428Y-106680928D02*
X92357142Y-106680928D01*
X92357142Y-106680928D02*
X92214285Y-106752357D01*
X92214285Y-106752357D02*
X92142857Y-106895214D01*
X92142857Y-106895214D02*
X92142857Y-107680928D01*
X91642856Y-106680928D02*
X91071428Y-106680928D01*
X91428571Y-106180928D02*
X91428571Y-107466642D01*
X91428571Y-107466642D02*
X91357142Y-107609500D01*
X91357142Y-107609500D02*
X91214285Y-107680928D01*
X91214285Y-107680928D02*
X91071428Y-107680928D01*
X89999999Y-107609500D02*
X90142856Y-107680928D01*
X90142856Y-107680928D02*
X90428571Y-107680928D01*
X90428571Y-107680928D02*
X90571428Y-107609500D01*
X90571428Y-107609500D02*
X90642856Y-107466642D01*
X90642856Y-107466642D02*
X90642856Y-106895214D01*
X90642856Y-106895214D02*
X90571428Y-106752357D01*
X90571428Y-106752357D02*
X90428571Y-106680928D01*
X90428571Y-106680928D02*
X90142856Y-106680928D01*
X90142856Y-106680928D02*
X89999999Y-106752357D01*
X89999999Y-106752357D02*
X89928571Y-106895214D01*
X89928571Y-106895214D02*
X89928571Y-107038071D01*
X89928571Y-107038071D02*
X90642856Y-107180928D01*
X89285714Y-107680928D02*
X89285714Y-106680928D01*
X89285714Y-106966642D02*
X89214285Y-106823785D01*
X89214285Y-106823785D02*
X89142857Y-106752357D01*
X89142857Y-106752357D02*
X88999999Y-106680928D01*
X88999999Y-106680928D02*
X88857142Y-106680928D01*
X88571428Y-106680928D02*
X88000000Y-106680928D01*
X88357143Y-107680928D02*
X88357143Y-106395214D01*
X88357143Y-106395214D02*
X88285714Y-106252357D01*
X88285714Y-106252357D02*
X88142857Y-106180928D01*
X88142857Y-106180928D02*
X88000000Y-106180928D01*
X86857143Y-107680928D02*
X86857143Y-106895214D01*
X86857143Y-106895214D02*
X86928571Y-106752357D01*
X86928571Y-106752357D02*
X87071428Y-106680928D01*
X87071428Y-106680928D02*
X87357143Y-106680928D01*
X87357143Y-106680928D02*
X87500000Y-106752357D01*
X86857143Y-107609500D02*
X87000000Y-107680928D01*
X87000000Y-107680928D02*
X87357143Y-107680928D01*
X87357143Y-107680928D02*
X87500000Y-107609500D01*
X87500000Y-107609500D02*
X87571428Y-107466642D01*
X87571428Y-107466642D02*
X87571428Y-107323785D01*
X87571428Y-107323785D02*
X87500000Y-107180928D01*
X87500000Y-107180928D02*
X87357143Y-107109500D01*
X87357143Y-107109500D02*
X87000000Y-107109500D01*
X87000000Y-107109500D02*
X86857143Y-107038071D01*
X85500000Y-107609500D02*
X85642857Y-107680928D01*
X85642857Y-107680928D02*
X85928571Y-107680928D01*
X85928571Y-107680928D02*
X86071428Y-107609500D01*
X86071428Y-107609500D02*
X86142857Y-107538071D01*
X86142857Y-107538071D02*
X86214285Y-107395214D01*
X86214285Y-107395214D02*
X86214285Y-106966642D01*
X86214285Y-106966642D02*
X86142857Y-106823785D01*
X86142857Y-106823785D02*
X86071428Y-106752357D01*
X86071428Y-106752357D02*
X85928571Y-106680928D01*
X85928571Y-106680928D02*
X85642857Y-106680928D01*
X85642857Y-106680928D02*
X85500000Y-106752357D01*
X84285714Y-107609500D02*
X84428571Y-107680928D01*
X84428571Y-107680928D02*
X84714286Y-107680928D01*
X84714286Y-107680928D02*
X84857143Y-107609500D01*
X84857143Y-107609500D02*
X84928571Y-107466642D01*
X84928571Y-107466642D02*
X84928571Y-106895214D01*
X84928571Y-106895214D02*
X84857143Y-106752357D01*
X84857143Y-106752357D02*
X84714286Y-106680928D01*
X84714286Y-106680928D02*
X84428571Y-106680928D01*
X84428571Y-106680928D02*
X84285714Y-106752357D01*
X84285714Y-106752357D02*
X84214286Y-106895214D01*
X84214286Y-106895214D02*
X84214286Y-107038071D01*
X84214286Y-107038071D02*
X84928571Y-107180928D01*
D10*
X103928571Y-114065147D02*
X103928571Y-114798480D01*
X103928571Y-114169909D02*
X103876190Y-114117528D01*
X103876190Y-114117528D02*
X103771428Y-114065147D01*
X103771428Y-114065147D02*
X103614285Y-114065147D01*
X103614285Y-114065147D02*
X103509523Y-114117528D01*
X103509523Y-114117528D02*
X103457142Y-114222290D01*
X103457142Y-114222290D02*
X103457142Y-114798480D01*
X102776190Y-114798480D02*
X102880952Y-114746100D01*
X102880952Y-114746100D02*
X102933333Y-114693719D01*
X102933333Y-114693719D02*
X102985714Y-114588957D01*
X102985714Y-114588957D02*
X102985714Y-114274671D01*
X102985714Y-114274671D02*
X102933333Y-114169909D01*
X102933333Y-114169909D02*
X102880952Y-114117528D01*
X102880952Y-114117528D02*
X102776190Y-114065147D01*
X102776190Y-114065147D02*
X102619047Y-114065147D01*
X102619047Y-114065147D02*
X102514285Y-114117528D01*
X102514285Y-114117528D02*
X102461904Y-114169909D01*
X102461904Y-114169909D02*
X102409523Y-114274671D01*
X102409523Y-114274671D02*
X102409523Y-114588957D01*
X102409523Y-114588957D02*
X102461904Y-114693719D01*
X102461904Y-114693719D02*
X102514285Y-114746100D01*
X102514285Y-114746100D02*
X102619047Y-114798480D01*
X102619047Y-114798480D02*
X102776190Y-114798480D01*
X102042857Y-114065147D02*
X101780952Y-114798480D01*
X101780952Y-114798480D02*
X101519047Y-114065147D01*
X101100000Y-114379433D02*
X100261905Y-114379433D01*
X99790476Y-113803242D02*
X99738095Y-113750861D01*
X99738095Y-113750861D02*
X99633333Y-113698480D01*
X99633333Y-113698480D02*
X99371428Y-113698480D01*
X99371428Y-113698480D02*
X99266666Y-113750861D01*
X99266666Y-113750861D02*
X99214285Y-113803242D01*
X99214285Y-113803242D02*
X99161904Y-113908004D01*
X99161904Y-113908004D02*
X99161904Y-114012766D01*
X99161904Y-114012766D02*
X99214285Y-114169909D01*
X99214285Y-114169909D02*
X99842857Y-114798480D01*
X99842857Y-114798480D02*
X99161904Y-114798480D01*
X98480952Y-113698480D02*
X98376190Y-113698480D01*
X98376190Y-113698480D02*
X98271428Y-113750861D01*
X98271428Y-113750861D02*
X98219047Y-113803242D01*
X98219047Y-113803242D02*
X98166666Y-113908004D01*
X98166666Y-113908004D02*
X98114285Y-114117528D01*
X98114285Y-114117528D02*
X98114285Y-114379433D01*
X98114285Y-114379433D02*
X98166666Y-114588957D01*
X98166666Y-114588957D02*
X98219047Y-114693719D01*
X98219047Y-114693719D02*
X98271428Y-114746100D01*
X98271428Y-114746100D02*
X98376190Y-114798480D01*
X98376190Y-114798480D02*
X98480952Y-114798480D01*
X98480952Y-114798480D02*
X98585714Y-114746100D01*
X98585714Y-114746100D02*
X98638095Y-114693719D01*
X98638095Y-114693719D02*
X98690476Y-114588957D01*
X98690476Y-114588957D02*
X98742857Y-114379433D01*
X98742857Y-114379433D02*
X98742857Y-114117528D01*
X98742857Y-114117528D02*
X98690476Y-113908004D01*
X98690476Y-113908004D02*
X98638095Y-113803242D01*
X98638095Y-113803242D02*
X98585714Y-113750861D01*
X98585714Y-113750861D02*
X98480952Y-113698480D01*
X97695238Y-113803242D02*
X97642857Y-113750861D01*
X97642857Y-113750861D02*
X97538095Y-113698480D01*
X97538095Y-113698480D02*
X97276190Y-113698480D01*
X97276190Y-113698480D02*
X97171428Y-113750861D01*
X97171428Y-113750861D02*
X97119047Y-113803242D01*
X97119047Y-113803242D02*
X97066666Y-113908004D01*
X97066666Y-113908004D02*
X97066666Y-114012766D01*
X97066666Y-114012766D02*
X97119047Y-114169909D01*
X97119047Y-114169909D02*
X97747619Y-114798480D01*
X97747619Y-114798480D02*
X97066666Y-114798480D01*
X96123809Y-113698480D02*
X96333333Y-113698480D01*
X96333333Y-113698480D02*
X96438095Y-113750861D01*
X96438095Y-113750861D02*
X96490476Y-113803242D01*
X96490476Y-113803242D02*
X96595238Y-113960385D01*
X96595238Y-113960385D02*
X96647619Y-114169909D01*
X96647619Y-114169909D02*
X96647619Y-114588957D01*
X96647619Y-114588957D02*
X96595238Y-114693719D01*
X96595238Y-114693719D02*
X96542857Y-114746100D01*
X96542857Y-114746100D02*
X96438095Y-114798480D01*
X96438095Y-114798480D02*
X96228571Y-114798480D01*
X96228571Y-114798480D02*
X96123809Y-114746100D01*
X96123809Y-114746100D02*
X96071428Y-114693719D01*
X96071428Y-114693719D02*
X96019047Y-114588957D01*
X96019047Y-114588957D02*
X96019047Y-114327052D01*
X96019047Y-114327052D02*
X96071428Y-114222290D01*
X96071428Y-114222290D02*
X96123809Y-114169909D01*
X96123809Y-114169909D02*
X96228571Y-114117528D01*
X96228571Y-114117528D02*
X96438095Y-114117528D01*
X96438095Y-114117528D02*
X96542857Y-114169909D01*
X96542857Y-114169909D02*
X96595238Y-114222290D01*
X96595238Y-114222290D02*
X96647619Y-114327052D01*
X107254761Y-111765147D02*
X107254761Y-112655623D01*
X107254761Y-112655623D02*
X107307142Y-112760385D01*
X107307142Y-112760385D02*
X107359523Y-112812766D01*
X107359523Y-112812766D02*
X107464285Y-112865147D01*
X107464285Y-112865147D02*
X107621428Y-112865147D01*
X107621428Y-112865147D02*
X107726190Y-112812766D01*
X107254761Y-112446100D02*
X107359523Y-112498480D01*
X107359523Y-112498480D02*
X107569047Y-112498480D01*
X107569047Y-112498480D02*
X107673809Y-112446100D01*
X107673809Y-112446100D02*
X107726190Y-112393719D01*
X107726190Y-112393719D02*
X107778571Y-112288957D01*
X107778571Y-112288957D02*
X107778571Y-111974671D01*
X107778571Y-111974671D02*
X107726190Y-111869909D01*
X107726190Y-111869909D02*
X107673809Y-111817528D01*
X107673809Y-111817528D02*
X107569047Y-111765147D01*
X107569047Y-111765147D02*
X107359523Y-111765147D01*
X107359523Y-111765147D02*
X107254761Y-111817528D01*
X106730952Y-112498480D02*
X106730952Y-111765147D01*
X106730952Y-111398480D02*
X106783333Y-111450861D01*
X106783333Y-111450861D02*
X106730952Y-111503242D01*
X106730952Y-111503242D02*
X106678571Y-111450861D01*
X106678571Y-111450861D02*
X106730952Y-111398480D01*
X106730952Y-111398480D02*
X106730952Y-111503242D01*
X106364285Y-111765147D02*
X105945237Y-111765147D01*
X106207142Y-111398480D02*
X106207142Y-112341338D01*
X106207142Y-112341338D02*
X106154761Y-112446100D01*
X106154761Y-112446100D02*
X106049999Y-112498480D01*
X106049999Y-112498480D02*
X105945237Y-112498480D01*
X105578571Y-112498480D02*
X105578571Y-111398480D01*
X105107142Y-112498480D02*
X105107142Y-111922290D01*
X105107142Y-111922290D02*
X105159523Y-111817528D01*
X105159523Y-111817528D02*
X105264285Y-111765147D01*
X105264285Y-111765147D02*
X105421428Y-111765147D01*
X105421428Y-111765147D02*
X105526190Y-111817528D01*
X105526190Y-111817528D02*
X105578571Y-111869909D01*
X104111904Y-111765147D02*
X104111904Y-112498480D01*
X104583333Y-111765147D02*
X104583333Y-112341338D01*
X104583333Y-112341338D02*
X104530952Y-112446100D01*
X104530952Y-112446100D02*
X104426190Y-112498480D01*
X104426190Y-112498480D02*
X104269047Y-112498480D01*
X104269047Y-112498480D02*
X104164285Y-112446100D01*
X104164285Y-112446100D02*
X104111904Y-112393719D01*
X103588095Y-112498480D02*
X103588095Y-111398480D01*
X103588095Y-111817528D02*
X103483333Y-111765147D01*
X103483333Y-111765147D02*
X103273809Y-111765147D01*
X103273809Y-111765147D02*
X103169047Y-111817528D01*
X103169047Y-111817528D02*
X103116666Y-111869909D01*
X103116666Y-111869909D02*
X103064285Y-111974671D01*
X103064285Y-111974671D02*
X103064285Y-112288957D01*
X103064285Y-112288957D02*
X103116666Y-112393719D01*
X103116666Y-112393719D02*
X103169047Y-112446100D01*
X103169047Y-112446100D02*
X103273809Y-112498480D01*
X103273809Y-112498480D02*
X103483333Y-112498480D01*
X103483333Y-112498480D02*
X103588095Y-112446100D01*
X102592857Y-112393719D02*
X102540476Y-112446100D01*
X102540476Y-112446100D02*
X102592857Y-112498480D01*
X102592857Y-112498480D02*
X102645238Y-112446100D01*
X102645238Y-112446100D02*
X102592857Y-112393719D01*
X102592857Y-112393719D02*
X102592857Y-112498480D01*
X101597618Y-112446100D02*
X101702380Y-112498480D01*
X101702380Y-112498480D02*
X101911904Y-112498480D01*
X101911904Y-112498480D02*
X102016666Y-112446100D01*
X102016666Y-112446100D02*
X102069047Y-112393719D01*
X102069047Y-112393719D02*
X102121428Y-112288957D01*
X102121428Y-112288957D02*
X102121428Y-111974671D01*
X102121428Y-111974671D02*
X102069047Y-111869909D01*
X102069047Y-111869909D02*
X102016666Y-111817528D01*
X102016666Y-111817528D02*
X101911904Y-111765147D01*
X101911904Y-111765147D02*
X101702380Y-111765147D01*
X101702380Y-111765147D02*
X101597618Y-111817528D01*
X100969047Y-112498480D02*
X101073809Y-112446100D01*
X101073809Y-112446100D02*
X101126190Y-112393719D01*
X101126190Y-112393719D02*
X101178571Y-112288957D01*
X101178571Y-112288957D02*
X101178571Y-111974671D01*
X101178571Y-111974671D02*
X101126190Y-111869909D01*
X101126190Y-111869909D02*
X101073809Y-111817528D01*
X101073809Y-111817528D02*
X100969047Y-111765147D01*
X100969047Y-111765147D02*
X100811904Y-111765147D01*
X100811904Y-111765147D02*
X100707142Y-111817528D01*
X100707142Y-111817528D02*
X100654761Y-111869909D01*
X100654761Y-111869909D02*
X100602380Y-111974671D01*
X100602380Y-111974671D02*
X100602380Y-112288957D01*
X100602380Y-112288957D02*
X100654761Y-112393719D01*
X100654761Y-112393719D02*
X100707142Y-112446100D01*
X100707142Y-112446100D02*
X100811904Y-112498480D01*
X100811904Y-112498480D02*
X100969047Y-112498480D01*
X100130952Y-112498480D02*
X100130952Y-111765147D01*
X100130952Y-111869909D02*
X100078571Y-111817528D01*
X100078571Y-111817528D02*
X99973809Y-111765147D01*
X99973809Y-111765147D02*
X99816666Y-111765147D01*
X99816666Y-111765147D02*
X99711904Y-111817528D01*
X99711904Y-111817528D02*
X99659523Y-111922290D01*
X99659523Y-111922290D02*
X99659523Y-112498480D01*
X99659523Y-111922290D02*
X99607142Y-111817528D01*
X99607142Y-111817528D02*
X99502380Y-111765147D01*
X99502380Y-111765147D02*
X99345237Y-111765147D01*
X99345237Y-111765147D02*
X99240476Y-111817528D01*
X99240476Y-111817528D02*
X99188095Y-111922290D01*
X99188095Y-111922290D02*
X99188095Y-112498480D01*
X97878570Y-111346100D02*
X98821428Y-112760385D01*
X97669047Y-111765147D02*
X97249999Y-111765147D01*
X97511904Y-112498480D02*
X97511904Y-111555623D01*
X97511904Y-111555623D02*
X97459523Y-111450861D01*
X97459523Y-111450861D02*
X97354761Y-111398480D01*
X97354761Y-111398480D02*
X97249999Y-111398480D01*
X96411904Y-111765147D02*
X96411904Y-112865147D01*
X96411904Y-112446100D02*
X96516666Y-112498480D01*
X96516666Y-112498480D02*
X96726190Y-112498480D01*
X96726190Y-112498480D02*
X96830952Y-112446100D01*
X96830952Y-112446100D02*
X96883333Y-112393719D01*
X96883333Y-112393719D02*
X96935714Y-112288957D01*
X96935714Y-112288957D02*
X96935714Y-111974671D01*
X96935714Y-111974671D02*
X96883333Y-111869909D01*
X96883333Y-111869909D02*
X96830952Y-111817528D01*
X96830952Y-111817528D02*
X96726190Y-111765147D01*
X96726190Y-111765147D02*
X96516666Y-111765147D01*
X96516666Y-111765147D02*
X96411904Y-111817528D01*
X95416666Y-111765147D02*
X95416666Y-112498480D01*
X95888095Y-111765147D02*
X95888095Y-112341338D01*
X95888095Y-112341338D02*
X95835714Y-112446100D01*
X95835714Y-112446100D02*
X95730952Y-112498480D01*
X95730952Y-112498480D02*
X95573809Y-112498480D01*
X95573809Y-112498480D02*
X95469047Y-112446100D01*
X95469047Y-112446100D02*
X95416666Y-112393719D01*
X94892857Y-112498480D02*
X94892857Y-111765147D01*
X94892857Y-111398480D02*
X94945238Y-111450861D01*
X94945238Y-111450861D02*
X94892857Y-111503242D01*
X94892857Y-111503242D02*
X94840476Y-111450861D01*
X94840476Y-111450861D02*
X94892857Y-111398480D01*
X94892857Y-111398480D02*
X94892857Y-111503242D01*
X94369047Y-111765147D02*
X94369047Y-112498480D01*
X94369047Y-111869909D02*
X94316666Y-111817528D01*
X94316666Y-111817528D02*
X94211904Y-111765147D01*
X94211904Y-111765147D02*
X94054761Y-111765147D01*
X94054761Y-111765147D02*
X93949999Y-111817528D01*
X93949999Y-111817528D02*
X93897618Y-111922290D01*
X93897618Y-111922290D02*
X93897618Y-112498480D01*
X93530952Y-111765147D02*
X93111904Y-111765147D01*
X93373809Y-111398480D02*
X93373809Y-112341338D01*
X93373809Y-112341338D02*
X93321428Y-112446100D01*
X93321428Y-112446100D02*
X93216666Y-112498480D01*
X93216666Y-112498480D02*
X93111904Y-112498480D01*
X92588095Y-112498480D02*
X92692857Y-112446100D01*
X92692857Y-112446100D02*
X92745238Y-112393719D01*
X92745238Y-112393719D02*
X92797619Y-112288957D01*
X92797619Y-112288957D02*
X92797619Y-111974671D01*
X92797619Y-111974671D02*
X92745238Y-111869909D01*
X92745238Y-111869909D02*
X92692857Y-111817528D01*
X92692857Y-111817528D02*
X92588095Y-111765147D01*
X92588095Y-111765147D02*
X92430952Y-111765147D01*
X92430952Y-111765147D02*
X92326190Y-111817528D01*
X92326190Y-111817528D02*
X92273809Y-111869909D01*
X92273809Y-111869909D02*
X92221428Y-111974671D01*
X92221428Y-111974671D02*
X92221428Y-112288957D01*
X92221428Y-112288957D02*
X92273809Y-112393719D01*
X92273809Y-112393719D02*
X92326190Y-112446100D01*
X92326190Y-112446100D02*
X92430952Y-112498480D01*
X92430952Y-112498480D02*
X92588095Y-112498480D01*
M02*
