M48
; DRILL file {KiCad 9.0.2+dfsg-1} date 2026-08-25T23:55:41+0200
; FORMAT={-:-/ absolute / metric / decimal}
; #@! TF.CreationDate,2026-08-25T23:55:41+02:00
; #@! TF.GenerationSoftware,Kicad,Pcbnew,9.0.2+dfsg-1
; #@! TF.FileFunction,MixedPlating,1,2
FMAT,2
METRIC
; #@! TA.AperFunction,Plated,PTH,ComponentDrill
T1C0.200
; #@! TA.AperFunction,Plated,PTH,ViaDrill
T2C0.250
; #@! TA.AperFunction,Plated,PTH,ViaDrill
T3C0.300
; #@! TA.AperFunction,Plated,PTH,ComponentDrill
T4C1.300
; #@! TA.AperFunction,NonPlated,NPTH,ComponentDrill
T5C2.268
%
G90
G05
T1
X97.1Y-88.86
X97.1Y-90.26
X97.8Y-88.16
X97.8Y-89.56
X97.8Y-90.96
X98.5Y-88.86
X98.5Y-90.26
X99.2Y-88.16
X99.2Y-89.56
X99.2Y-90.96
X99.9Y-88.86
X99.9Y-90.26
T2
X113.22Y-93.5
X113.66Y-83.35
T3
X79.15Y-127.1
X79.96Y-105.3
X81.0Y-102.2
X81.9Y-94.98
X81.9Y-98.53
X81.9Y-100.31
X82.1Y-90.87
X82.2Y-103.9
X82.6Y-109.0
X82.9Y-85.9
X84.33Y-81.05
X84.4Y-114.6
X85.31Y-128.4
X85.62Y-93.95
X85.9Y-114.5
X85.97Y-81.1
X86.3Y-130.0
X88.22Y-94.98
X88.22Y-96.76
X88.4Y-101.3
X88.55Y-115.35
X89.14Y-91.9
X89.25Y-100.7
X89.31Y-89.45
X89.45Y-82.9
X89.5Y-90.45
X90.05Y-100.42
X90.3Y-84.3
X91.25Y-81.84
X91.25Y-83.11
X91.25Y-88.19
X92.87Y-115.35
X92.9Y-130.2
X95.5Y-82.9
X95.5Y-86.0
X96.1Y-129.2
X97.42Y-110.95
X97.8Y-88.8
X97.8Y-90.4
X97.9Y-122.5
X98.0Y-115.6
X99.2Y-88.8
X99.2Y-90.4
X100.3Y-124.9
X100.3Y-126.4
X101.7Y-124.9
X101.7Y-126.4
X105.58Y-128.6
X106.6Y-126.35
X108.75Y-81.84
X109.4Y-126.4
X110.47Y-128.85
X112.35Y-96.75
X112.5Y-108.5
X112.9Y-127.4
X114.3Y-91.9
X114.55Y-94.3
X115.35Y-87.75
X117.6Y-80.9
X117.68Y-82.35
X118.6Y-118.5
X119.35Y-90.43
X120.6Y-128.2
X121.7Y-106.3
X121.7Y-111.3
T4
X112.282Y-82.279
X112.282Y-84.819
X112.282Y-87.359
X112.282Y-89.899
X112.282Y-92.439
X112.282Y-94.979
X117.0Y-100.96
X117.0Y-106.04
T5
X80.151Y-116.315
X113.552Y-124.062
X119.648Y-83.93
M30
